<svg xmlns="http://www.w3.org/2000/svg" width="456.497" height="348.295" viewBox="0 0 456.497 348.295">
  <g id="europe" transform="translate(-145.65 -0.95)" opacity="0.23">
    <path id="AL" d="M650.746,527.542l.267.214,1.07,1.551.749.267,1.016.7.749,1.712.053,1.177-.267,1.391.16,1.123-.428.428.374,1.07.107,1.016.642,1.177.642.588.7,1.284.856-.107.7.588v.588l.588.963-.428,1.391-.909.428-.642,1.658-.16,1.07-.321.267-1.016.16-.909.7.535,1.177-.481.374-.16.8-.374.374-1.444-.481-.374-1.337-.909-1.444-2.621-1.391-.642-.588.214-.8-.053-.749-.749-1.284.161-1.391.428-1.177-.16-1.444.053-1.123-.374-1.551.267-1.123.481-.7-.107-1.177-.8-.588-.856-.107v-1.658l-.16-.321h.909l-.909-1.5,1.712-2.835.588.16.428,1.123,1.819-.642Z" transform="translate(-232.802 -244.616)" fill="#00ffc2" stroke="#000" stroke-linecap="round" stroke-linejoin="round" stroke-width="0.1"/>
    <path id="AD" d="M421.772,527.823l-1.5.588-.374-.214v-1.123l.481-.374,1.391.321v.8Z" transform="translate(-127.541 -244.523)" fill="#00ffc2" stroke="#000" stroke-linecap="round" stroke-linejoin="round" stroke-width="0.1"/>
    <path id="AM" d="M964.832,560.911l-1.712-1.5-1.23-.909-.856-.374-1.872.214-1.551-.481-.963-.481.267-.321-1.016-1.6-.428-1.016.535-.749.107-1.23L955.2,550.7l-.909-.642-.7-.856,2.353-.161,2.835-.7,1.712.161.588-.107,1.872-.054-.267-.374,1.23-.267.7.8.856.535-.481.481,1.23.535h.642l1.765,1.337v.374l-1.016.8-.107.588,1.712,1.818,1.284.749,1.712.8.107.481-.481,1.337h-1.6l.321.481,1.016.642,3.263,2.353.8-.16,1.177.481.107.7-.535.749,1.016.749.428.8-.963.267.749.8.267,1.391-1.177-.053-1.337.267-1.6-2.514.053-.535-1.658-1.123.053-.909-.428-.642-.909.107-1.016.481-1.551-.856-.642.107-.16-.588-.963-.909-1.712.481Z" transform="translate(-375.785 -254.291)" fill="#00ffc2" stroke="#000" stroke-linecap="round" stroke-linejoin="round" stroke-width="0.1"/>
    <path id="AT" d="M566.31,432.063l-.481,1.284.053.428.856,1.551,1.23,1.551-.321.374-.321,1.016.374,1.07-2.086.16-1.337-.481-.7.749,1.391.374.267.588-.267.749-1.177.642.214.8-.267.374.588.856-.161.963-1.337.267-.963.909-.7.481-.053,1.016-1.284-.267-.856.107-1.23.588-1.5-.107-1.391.107-1.016.374-.535.7-1.6.642-2.674-.374-2.674-.481-1.391-.267-2.139-.16-4.6-.8-.588-.267-1.658-1.872v-1.23l-2.514.8-1.658-.107-1.819.16-.749.321-.642,1.177-.588.214-1.123-.214-.481-.428-1.6-.16-.267-.8-.428-.16-1.07,1.016-1.23-.214-.8-.428-.214-.535-1.765-.428.16-.428-.588-1.337.535-1.6-.481-.374.909-.267.374-.267,1.872.856.481.749.642.16-.053.7.856-.267.535-.856.107-1.016,1.5-.053,1.444.214.749,1.016,2.032-.267.588-.481,2.086-.8,3.049-.267.053-.749,1.07.16.8.428,1.337-.267.588.267.107.588.642.481.909.214.16-.8-.16-1.016-.909-.16.321-.7-.054-.7-1.337-1.5.321-.7,1.658-.963,1.551-.428.535-.535.374-1.551,1.23.481.7-.481.107-1.5,1.177.642.428.7,2.086.214.749-.374,1.337.214.053-.588.7-.856h.642l.16-1.712.642-.107.856.428.749-.214,2.567.909.8-.053,1.6.909,2.032.107.642-.481,2.728.8.535.856Z" transform="translate(-173.45 -198.986)" fill="#00ffc2" stroke="#000" stroke-linecap="round" stroke-linejoin="round" stroke-width="0.1"/>
    <path id="BE" d="M452.325,396.776l.856-.267.428.428.642.053,1.6,1.23-.214.8.909.374.214,1.07-1.23.7-.321.909-.909-.374-.7.7-.749,1.337-.107.909,1.07,1.284-.588.909-1.819.214-1.5-1.391-1.765-.8-.909-.054-.214-1.07-.321-.321.428-1.444-1.016.321-.267.749-.7.321-1.177.16-1.23-.16-.267-.321.374-.749-.374-.374.214-.856-.856-.588-1.926-.214-.481.16-.321-1.07-2.246-.588-.267-1.07-.856-.963-1.712.535-1.551-1.284v-.642L432,394.156l2.728-1.337,2.514-.909.16.7.642.374.642-.321,2.086.588,1.712-.8.321-.642,1.123.16-.107-.481.749-.374.8.428.8-.535.588.7,1.337-.428.267.856,1.391.749,1.016-.214.909.7,1.391.588-.535,1.551-.588.7.374.588Z" transform="translate(-133.169 -181.404)" fill="#00ffc2" stroke="#000" stroke-linecap="round" stroke-linejoin="round" stroke-width="0.1"/>
    <path id="BG" d="M723.319,506.018l.107,1.979-.481.963-1.07-.321-1.177.267-.535,1.07-.642.642v1.391l.214,2.246-.856.374-1.551,1.979,1.6.963.909,1.177,1.284,1.337.267.642-.909-.107-.481.214h-.963l-.8.321-1.819-1.337-1.872.16-.8.588-1.819.214-.535,1.177-1.016.16-.161.749-.856-.267-.856.588.374.535.481,1.444-.107.428-1.337.642-.963-.16-1.712.214-1.819.481-.909-.588-1.979-.642-.481.321-1.284-.749-.642-.909-.856.267-2.246-.053-.107.481-1.016.107-1.6.588-1.391-.107-1.284.107-.535.535-1.6-.107v-2.246l.267-.909-.481-.535-.909-1.765-1.818-.963-1.765-1.712.535-.16.588-.909-.749-1.551v-1.765l.588-.321.963-.053.588-.856.856-.909.16-.749-.856-.535-.7-.856-1.551-.8-1.284-2.086-.321-1.284.214-1.23,1.123-.535.107-1.016.481-.374,2.3,1.337-.963,1.07.481.963,1.979-.321,2.086.16,2.835.535,1.872.214,1.337-.267,5.028.909,2.246.107,1.23-.321.856-.481.642-.856,1.765-1.123,1.712-.642,2.353-.481,1.551-.214,2.407,1.23,1.712.214.481.321.909-.267,1.337,1.391,1.177.374,1.391.267h1.07Z" transform="translate(-249.268 -232.988)" fill="#00ffc2" stroke="#000" stroke-linecap="round" stroke-linejoin="round" stroke-width="0.1"/>
    <path id="BA" d="M619.269,489.27l1.5-.374.8.428-.267,1.337-.856,1.444-.053,1.391.267.428,1.284.642,1.765,1.551-.16.428-1.658-.053-.267.428,1.712,1.979-.107,1.177-1.337-.16-.374.428-1.712.267.749,1.177-1.23.107-1.07.909-.267.909.053.8-.909.107-.267.374.321,1.6.588.856-.053.428-.588.535-.909-.374-3.316-2.032-.321-.481-.856.053-.588-.321.16-.856-1.6-1.337-.8-.856-.214-1.177-1.284-.588-2.674-2.193-.909-1.07-1.5-1.23-1.23-1.284-.7-2.139-1.819-1.712-1.016-.7-.053-.749.161-2.674.642-.321.963.214.909.963.963.535,1.444-1.712,1.712.16.8-.642,1.444.856,1.337.053,1.5.374.909-.321.856.7,1.177-.535.963.16.963-.107,1.391.374,1.177.107.588.428.7,1.177Z" transform="translate(-210.15 -225.546)" fill="#00ffc2" stroke="#000" stroke-linecap="round" stroke-linejoin="round" stroke-width="0.1"/>
    <path id="BY" d="M701.987,321.5l.963.7.642-.214,1.016-.053,1.658,1.177.856-.481.8-.16,1.925.642.107,1.23.909.8,1.123-.7,1.444-.588h1.818l1.444.481,1.284.963,1.872.749.214,1.337-.321.963,1.123,1.123.267.7-.7,1.07v1.07l2.193,1.07.267.267-.267.963.749.321.963,1.284.8.749,2.621,1.123.374.428-.214,1.5,2.835.267,1.712.7v.588l.374.588,1.5.749.321.909-1.391.535-.16.481-1.6.963-1.872-.107-1.284-.8-1.551.054-.749,1.444,2.086,1.765.321.535-.107.8.535.8.267,1.765.856.749.7.963-2.674-.054-.749.428-.909-.214-.588.267-1.177,1.23-.428.642-.535,1.765.963,1.926-.428.749-1.444-.481-.267-.642-1.07-.588-3.8.321-1.23.428-.321-.267-1.337-1.6-2.032.856-.321.588-.535-.16-.428-.7-2.728-.535-1.016.374-1.016-.267-.642.909-.428-.749-.588-.214-1.6.053-.535-.16-.963-1.123h-1.23l-3.263-.481-3.477-.8-4.172-.214-1.284.053-1.23.267-3.156.267-.428.749-.856.856-1.016.642-.588-.267-1.016-.16-.588.267.053.749-.535-.856-.053-.7.428-.8-.214-.588.107-1.284-.428-.535-.963-.535-1.765-.7v-.642l1.07-1.444.428-.267,2.14-.909.321-.856-.481-2.086-.909-1.926-1.551-2.621L676.1,338.99l1.551.214.856-.16,1.979-.16.856.481,1.765-.7.963.053.428-1.391,1.07.107.749-.642,1.123-.267.535-.374.909,1.23,1.07-.107v-.535l-.481-.588-1.016-.267.267-1.07.535-.8-.214-1.23.588-1.6,1.391-.321.428-.321.535-1.07,1.925.053.214-.588.7-.535-2.086-.535.374-1.658v-.963l1.391-.321.642-.8.588-.16,1.6.214,1.658.053.214-.909,1.337-1.284.749-.428.7-.107Z" transform="translate(-246.709 -149.077)" fill="#00ffc2" stroke="#000" stroke-linecap="round" stroke-linejoin="round" stroke-width="0.1"/>
    <path id="CH" d="M496.146,448.4l.428.588,1.391.7h.642l.481.374-.535,1.6-.267.8.053.909.642.053,1.765.428.214.535.8.428,1.23.214,1.07-1.016.428.16.267.8-.267,1.658.267.963-1.016-.107-.535-.481-.7.16-.321.963.8,1.872-.642.16-.749-1.016-.374-.053-1.551.588-1.07-.428-.428-1.123-1.07.053v1.551l-.267.588-1.177,1.391-.107.535.374.909-.642.374-.481-.749-.7-.642.214-.642-1.177-.321-1.284-1.07-.107-1.337-.535-.321-1.819,1.551.321.8-.856,1.177-1.284.749-1.658-.428-1.391.535-1.284.267-.749-.374-.481-.749-1.23-1.23.267-.909-.428-1.177-1.177-.16-1.016.053-1.23.8.267.7-1.23.856-.749-.053v-.535l.8-.535.16-.8-.428-.374.588-1.551,1.6-1.177.267-1.551,1.123-.481,2.032-2.139.321-.481-.7-.588.963-.749h.588l.428.428,1.444-.16.428-.749.8-.374.535.16,1.5.053,1.765-.321,1.391.107-.107-.8.7-.642h.7l.749.535.428-.107.588.481,1.979-.107Z" transform="translate(-153.403 -207.731)" fill="#00ffc2" stroke="#000" stroke-linecap="round" stroke-linejoin="round" stroke-width="0.1"/>
    <path id="CZ" d="M564.062,399.244l1.123-.214-.053-1.016,1.765.428.161.588.535.588,2.46.588,1.444.588.428.481,1.712-.374.963.642-.374.588-.856.642.856.481,1.07.963.8,1.016.535.214,1.872-1.337-.909-1.284h.7l1.177.321,1.765,1.016,1.925-.374v.856l-.749.267,1.444,1.23.535.321.963-.535,1.872.963.267-.107,1.444.428.267.963,1.5,1.177.267.856-1.5.16-1.07.8-.321.428-1.23.642-.374,1.6-.856.428-1.123,1.016-.8.374-.909.107-1.925-.267-.749.642-.588,1.5-.535-.856-2.728-.8-.642.481-2.032-.107-1.6-.909-.8.053-2.567-.909-.749.214-.856-.428-.642.107L566.2,416.2h-.642l-.7.856-.053.588-1.337-.214-.749.374-2.086-.214-.428-.7-1.177-.642-.321-.374-1.551-1.177h-.7l-.7-.856-1.337-.8-1.551-1.391h-.7l-1.23-1.07L550,409.139l-.749-.8.642-.909-.321-.856-1.23-.7L547,404.058l.267-.374,1.016,1.07,1.016-1.391.588-.321,1.391-.321,1.123.214.428-.7,1.07-.16.321-.535.856-.374.588.053.321-.642,2.353-.535,1.872-.8,1.016-.321-.8-.8.428-.321,1.177.214.8.8v.481l.749.321.481-.374Z" transform="translate(-186.66 -184.567)" fill="#00ffc2" stroke="#000" stroke-linecap="round" stroke-linejoin="round" stroke-width="0.1"/>
    <path id="DE" d="M523.433,348.083l-1.819-.053-.107-.909-.588-.535-.053-.535,2.514,1.391Zm-18.613-4.332h-.963l-.749-.374.428-.535.909.214.374.7Zm15.137.267-.7.374h-.7l-.7.7-1.123-.588-.267-.588.053-1.177.321-.749,1.07-.481.481.642.909.321-.267.909Zm-24.925-3.53.963.374.856.856.053.749-.909.856,1.712-.16.428.642.909-.214,2.407.963,1.712-.481.374.749-.321.8-1.177.856.749.642,1.123-.107,1.926.481,1.765-1.337.588-.267,1.926-.16,2.728-2.407,2.835.481.8,1.016,1.979,1.123,1.712-.107.7,1.07.428,1.337,1.016.7,1.5.267.374,1.391.963,2.193-.16,1.444-1.016.963-.374.856.856.749,1.765,1.123.749.909-.321,1.391,1.07,1.23.428,1.016-.374,1.391-.428.588,1.016,1.658v.856l1.177.481.856,1.712-.214,1.23-.856,1.925-.481.374-.749-.321v-.481l-.8-.8-1.177-.214-.428.321.8.8-1.016.321-1.872.8-2.353.535-.321.642-.588-.053-.856.374-.321.535-1.07.16-.428.7-1.123-.214-1.391.321-.588.321-1.016,1.391-1.016-1.07-.267.374,1.337,1.819,1.23.7.321.856-.642.909.749.8.963,1.444,1.23,1.07h.7l1.551,1.391,1.337.8.7.856h.7l1.551,1.177.321.374-.107,1.5-.7.481-1.23-.481-.374,1.551-.535.535-1.551.428-1.658.963-.321.7,1.337,1.5.053.7-.321.7.909.16.16,1.016-.16.8-.909-.214-.642-.481-.107-.588-.588-.267-1.337.267-.8-.428-1.07-.16-.053.749-3.049.267-2.086.8-.588.481-2.032.267-.749-1.016-1.444-.214-1.5.053-.107,1.016-.535.856-.856.267.053-.7-.642-.16-.481-.749-1.872-.856-.374.267-1.177-.642-2.728-1.23.535.856-1.979.107-.588-.481-.428.107-.749-.535h-.7l-.7.642.107.8-1.391-.107-1.765.321-1.5-.053-.535-.16-.588-.7v-.8l.321-1.07-.107-1.284.16-.8.535-.963.749-2.942,1.872-2.032-.053-.7-.856-.321-2.567-.428-1.07-.749-1.6.321-1.123-.053-.16-.481-.749-.214-.963.374-1.872-2.3-.749-.053.321-1.6.481-.481v-.749l-1.5-.588-.8-.856-.16-1.177.321-.909,1.23-.7-.214-1.07-.909-.374.214-.8-1.6-1.23.321-1.284L472.3,371.3l.267-.428,1.177-.856-.374-.642.7-1.5v-.642l-1.658-2.193.374-.588.963-.374,1.23.428,2.407-.7.374-.535-.535-.481.16-.481,1.391-.856.321-1.391-.428-.535-1.391-.16-.374-.535.321-.856,1.658.053.588-2.032.374-.909-.053-2.3-.909-.749.267-1.444.588-.749.481-.214,2.139-.16,2.407.053,1.016,1.177-.321.642.856.16.481-1.284.749.428.588-.054-.267-.909.107-.856.481-.749,1.765.321,1.926-.16.053-.321-1.5-.267-.481-.588-.107-2.086-.8-.428-.856.16v-.8l1.819-.588v-.535l-1.819-2.032-.107-.856,1.444.053,2.781.7,1.658-.374.8.214Z" transform="translate(-151.914 -157.636)" fill="#00ffc2" stroke="#000" stroke-linecap="round" stroke-linejoin="round" stroke-width="0.1"/>
    <path id="DK" d="M515.592,320.557l1.123.535,1.284.16.214,1.016-1.872.374-2.728-1.123.053-1.337,1.23-.107Zm7.328-.588-1.23.053-1.016.535-.16-.642.856-.535.642.107Zm-15.4.642-.642.107-.909-.267-.321-1.23,1.444.588.428.8Zm4.279,1.07-.749-.8,1.337-1.551.374-.107Zm26.8-2.139-1.284-.107-1.284-.535.053-1.07.267-.481,2.407,1.23Zm-27.866-4.653,1.23,2.3-.053,1.5-.963.642h-1.123l-2.888-.909-.909-1.551-.053-1.23,2.567-.749,1.391.428Zm12.462.107-.535.321-.374-.481.481-.481.428.642ZM510.4,313.5h-.481v-1.6l.8.856Zm12.088,0,.053.8-.374.374-1.07.374-.588.963,1.07.642.267.8-.535.374-1.391.374v3l-1.177.321-.8-1.123-.054-.481-.7-1.658-1.07-.214-1.177.053-.8-.963.053-1.123-.535-1.07-.7-.321.214-.749,1.658-.107.8-1.016v-.481l.963-.107.428.374.053,1.391.856.267.588-1.551-.481-.588,2.086-1.177.588-.053,1.6.481-.214,1.123.374,1.07Zm-16.9,7.6-.8-.214-1.658.374-2.781-.7L498.9,320.5l-.267-1.123-.428-.749.588-.16-.481-2.086-1.712-.7-1.337-.749.267-3-.535-1.23.053-3.691.7-.053,1.658.428.8.481.321-1.016.856-.856,1.07-.428.856.7.16-2.407-.856-.267-.7.214-.7,1.016-.535,1.284-1.016.107-.8.374-1.284-.749.053-.749.856-1.016,1.07-1.016h1.177l.856-.321,2.086.053,1.5-.7,1.5-1.926.8-.8,1.765-.267,1.6-.909-.428,1.337.642.909v1.6l-.481.535-.749,1.337.107,3,1.337.8h2.193l.535.588-.374,1.177-1.391.749h-.481l-.749-.588-.588.481-.642,2.728-1.07-.053-.642.267.749.642-.7.428-1.819,1.658.588,1.819-.107.481-.8.7-.321.588,1.23.16.7,1.551Z" transform="translate(-162.473 -138.239)" fill="#00ffc2" stroke="#000" stroke-linecap="round" stroke-linejoin="round" stroke-width="0.1"/>
    <path id="EE" d="M651.686,278.462l2.086.107,2.139.963-.963.374-1.979,1.337-.161.267-1.391-.053-.749.107-.535.481-.481,1.5-.856.267-.16-.481.856-.963-.8-.749-1.016-.374.481-.963-.856-.856.8-.107.535.267,1.07-.267.267-.535Zm4.439.535-.481.107-1.284-.588.535-.535,1.016.267Zm-2.888-2.139-.428.374-.481-.321-.481.856-.7.16-1.016-1.337-1.551-.267-.7-.374,2.407-.214.642-.856.7.053.214.481,1.123.16.481.535-.214.749Zm28.455,10.109-1.016-.107-1.819-.535-2.139.642-1.5-.588-1.872-1.444-.321-.374-1.23-.267-3-1.337-.588.374-.8-.535-4.493,1.5.535-1.819.053-1.926-1.23-.214-.481.7-.7.16-2.193-.7-.642-1.123-.856-.588-.428-.642v-.963l-.8-1.07.374-.588-.374-1.5,1.6-.642,1.765-.107.481-.7,1.07-.7,1.23.107,1.658-.535,3.37.053.214-.909h1.712l4.065.642h.963l1.5.642.749.16H678.7l3.37.267.642-.535.8.642-.535.749-.642.214-.481,1.712-.428.535-.909-.16-1.337.107-1.07.267-.7.588.053.588,1.391,1.23.749,1.5L681,280.923l.428.7,1.284,1.551.963,1.337-1.23.321-.642,1.07-.107,1.07Z" transform="translate(-233.313 -125.401)" fill="#00ffc2" stroke="#000" stroke-linecap="round" stroke-linejoin="round" stroke-width="0.1"/>
    <path id="FI" d="M629.336,197.951l1.07.107-.321,1.5-1.23-.963Zm-1.016.267L627.2,197.9l.481-.428Zm-3.477-1.444-.8.374-.16-.909Zm13.639-33.643-.8.267-.7-.16-.107-.481,1.07-.321Zm16.1-29.2-1.979.7.856.428.428.642-1.07,1.712.053.321,1.658,2.139,3.851.909,1.23.963,1.926,1.23.963.481.053,1.016-1.6,1.6-1.391,1.658-.642.909.214.909,1.391,1.123,1.23,1.177,1.6,1.872,1.6,1.337,1.6,2.246.214.749-1.979.374.642.481-.321.7.161,1.016-.267.8,1.016.16.16.7-.909.535v.481l.749.909.535.321,1.712.321.481.856-.535.909.963,1.177,2.407.963.374.7.107.909-1.284,1.6-1.07.428.374.428L672.5,174.2l3.53,1.551,1.391.7,1.123,1.016,1.177.856.267.535-.856,2.407-.374.642-1.177,1.177-1.818,1.5-1.23,1.23-2.835,3.156-1.016.8-1.123,1.177-2.621,1.765-.374.428-1.337.8-3,2.781-1.872.535-1.391-.588-.963.107-.642.428-1.337.107-1.07.321-.535-.374-.374.321-1.016.107-1.07-.535.16.8-1.765.8-.428-.481-1.07.535-1.123.107-.588.428-3.156.588-.8.7-.642-.16-3.584.588-1.551-.107-1.444,1.07-.963.214.8-1.6-1.284-.588-.642-.856-.374.214-.16.8-.8.428-1.07-.053-.214-1.284.428-1.23-1.926-.321-2.032-.749-.481-.053-.374-.7-1.07.481-1.123-.481-.909-2.835v-.7l.481-.856-.053-1.819-.321-1.07.588-.321-.481-.856-1.177-1.6-.856-.588.267-1.765-.321-.856-1.016-.588-.588-1.551.321-1.284,1.284-1.177v-.642l.481-.588-.267-.7,1.444-.267.535.214,1.284-.214,1.016-.535-.588-.963.8-.374.642-.642-.053-.535,1.23-.267,1.284-1.016,1.23-.588,1.23-1.016.588-.053.16-.7,1.337-1.016.428-.856,1.23-.963,1.177-2.086,2.032-.642,2.032.16-.321-.909.535-.16-.321-.7-.535-.321v-2.46l-.7-.481-2.407-.856-.909-.053-.642-.642-2.46-.374-.856-1.337-1.016-1.177-.963-.321-.7-1.391v-.7l.8-.7-.053-.963.374-.749-.321-.481-1.765-1.391-.428-.856.053-.588.535-.428-.321-.7-1.5-.214.16-1.016-.374-.749-.214-1.284.588-.535-.963-.481-1.016-.8-.749-.053-.642-.856-1.872-.963-4.439-.909-2.246-.963-2.567-1.23-1.551-.588-.214-.481-1.551-.428.267-.214h1.123l1.016.214.267-.321-.535-.749,1.016-.588h1.926l4.225,2.942.749.963,3.691.321.428.267.963-.053,1.979-.481.642-.642.8.053,1.926.588,2.086.428,1.391.428.7-.321.267-.909.856-.7,1.123-.16.8-.749-.374-1.712.321-.909.374-2.032,1.391-.909.909-.963,1.123-.107,2.032.214.481-.107,1.872-.856,1.551-.16.963.642,2.246,1.07,2.246.588,1.925.428,1.391,1.444-.374.535-1.712,1.551v.374l.909.7Z" transform="translate(-215.778 -58.421)" fill="#00ffc2" stroke="#000" stroke-linecap="round" stroke-linejoin="round" stroke-width="0.1"/>
    <path id="GB" d="M351.1,334.725l-.856.7-.7.107-1.337-.642v-.267l1.337-.588,1.07.321Zm-19.522-21.234.7.481-1.819,1.016-.642-.321-.481-.642-.053-1.016.642-.267h.963Zm-12.462-6.1-1.123.214h-1.551l.053-.8-.749-.267-.963-1.444-.7-.267-1.016.856.267.481-1.284.963-1.551-.16-.428-.374-1.123-.214-.107-.535-1.444-1.07.535-.749,1.551-.481-.535-.749.107-.428.856.053,1.177-.428.642-.856.535-1.23,1.016-.481.7.321,1.016-1.07,1.5-.053,1.444-.374,2.086.16.588.588.267.909.7.909.909.749v.481l-1.07.588,1.872.16.642,1.337-1.123.16-.053.749.588.107-.321.749-1.391.321-.749,1.177-.535.267-1.23-.267Zm7.328-10.8-1.391-.267-.321-1.07.481-.749.963.374.321.7Zm-6.151-3.8.374,1.819-1.284.7-.428-1.284-.749.535.107-1.016.8-.16Zm.909.909-.588-.642.856-1.177.909-.535-.053.856-1.123,1.5Zm1.337-4.172-2.46.428.321-1.6-1.016-.481.16-.481,1.123-.267.909.909,1.123.321-.16,1.177Zm-8.665-6.1-.8-.107-.214-.749.107-1.23.856.107.053,1.979Zm6.846-3.049-.053,1.5,1.551.428,1.07-.053.214.321-1.765,1.444-.374-.053-.107-1.177-.749.16-1.016-.16-.642-1.016-1.444-.267-.481-.588.749-.321.16-.642,1.5-.321.8-.374.481.535.107.588Zm-6.365-1.391.642.481-.588.7h-.8l-1.177-.535.107-.267Zm6.311-5.3-.856,1.391-.535.374-.107.909-1.6.856-1.712,1.284-.749-.535,1.391-.909-1.123-.535-.107-1.391.428-.374.749.374,1.016-.16-.374-.642,3.37-1.712.214,1.07Zm18.613-1.177v.642l-.7.856-1.177.642-2.246,1.5-1.337.7-.267.856.749.053.107.428-1.177.856-.321.8,1.6-.214,2.835-.8,1.926.267,1.391-.16,3.691.107,1.016-.16,1.23.7.535.909-1.5,1.819-.428,1.23-1.07,1.872-1.016,1.07-1.07,1.337-1.123.588-1.658.267,2.407,1.016-.749.963-1.284.053-1.23.909-1.123.374,1.926.588,1.284-.535,1.444-.053,2.781,1.016,1.926,1.819,1.07.8.267.588,1.123,3.691.8,2.032.856.963,2.407.856.588.321,1.819,1.765,1.819,1.284-.749.8.214.642L358,310.121l.16.856-.7-.053-1.23-.749-.16.374,2.674,1.765.856,1.07.535,1.444-.321.588-1.6,1.444,1.5.749.642-.107,1.07-1.123.909-.107,2.246.16,2.032.535,1.765,1.123.374.588.214,1.658-1.177,3.1-1.5,1.016-.267.909-1.123.481-.909-.16-1.284.642.909.321v.909l-.588.321-1.337.107.588,1.07,1.337.214,2.3-.107,1.016.107-.107,1.444-.214.214-2.032.909-.535.963-1.177-.053-.588.374-3.049,1.016-2.621-.428-1.551.053-2.139.321-2.246-.642-.963-.107-1.5.909-2.246.267-1.07-.107.481.8-.481.214-2.032-.267-.535.267-.749-.107-1.444-.749-1.391-.053-2.621.642-.535.7-.7,1.872-.588.642-.749.107-2.407-1.337-.8.267-1.337.16-1.444.374-2.086,1.284-.481.8-.7.107-.588-.481-.749-.16-1.23.428-.16-.7.535-.535,1.5-.374,1.337-1.016,1.177-1.23,2.46-2.032.428-1.658,1.444-.374.749-1.337,2.193-.321h1.5l1.5.267,1.551-.053.588-.374,1.016-1.284,1.926-1.6-2.514.535-2.032,1.23-1.712-.214-1.23-1.016-1.123-.428-1.123.214-.374-.481-1.284-.909h-1.391l-1.926.909-1.391-.642-.481-1.23.16-.749.588-.374,1.337-.321,2.032-.909,1.177-.374,1.5-1.016.642-1.23-.16-1.07.267-.749-.481-.909.16-.8-1.6.16-1.444.642-.374-.588,1.5-.963.535-.749,1.391-.909,1.926-.7,1.016.053,1.979-.374,1.444.7-.428-1.123.642-.214.053-1.284.856-1.177-.642-.321.053-1.07.8-.428.374-1.391-.909-.267-1.123.321-.909-.8-1.5-1.926-.16-.749.856-1.658,1.23-1.07-1.016-.428-.749.107-1.444.642-1.07.7h-1.123l-.428-.481-.588.053-1.337.588-1.872-.7-.588,1.23-1.391-1.337-.16-1.016h.7l.642-1.284,1.551-2.139.321-.642-.267-.749-1.016-.8.16-1.391.428-.535.8-.214-1.016-.642-1.551.481-.963.481.16-1.07-.321-.214-.8.749.053,1.765-1.123,3.049-.588.481-.749-.267.588-2.086.749-1.337-.321-.16.16-1.926.535-1.551.909-2.032,1.177-1.872-2.193,1.444-.535.267-1.284-.214-.428-.374-.535-1.23.963-.107.909-.588-.8-.374.8-.481.909-1.123.214-1.016-.535-.8-.856-.321-.107-.481.909-1.016-.374-.8.856-1.658,1.6.053,1.016-.214-1.23-1.07.374-1.551,1.979-.16-.428-.963.16-1.07.856-.481.7.107.535.481,1.391-.481.321.428,1.5-.321,1.979-.16,2.407-.321,1.177-.214,1.23.107-.321.909Zm-.321-2.139-.7.053-.7-.749.8-.16.588.856Zm.7-1.819,1.444.321-.321.749-.749-.374-1.07.16-1.016-.535.214-1.123.909-.053.642.267-.054.588Zm1.979-1.23-.535.16-.214-.642-.909-.321.214-.428Zm8.611-10.43.856.963.535.267-.7,2.032-.107.856-.535.909-.428-.214.481-1.551-.267-.588-.909.16-.214-.481.856-.749-.428-1.07-.588-.107.8-.856.642.428Zm1.551.214-.749-.7.7-.321Z" transform="translate(-75.213 -118.657)" fill="#00ffc2" stroke="#000" stroke-linecap="round" stroke-linejoin="round" stroke-width="0.1"/>
    <path id="GE" d="M940.48,531.234l-1.23.267.267.374-1.872.054-.588.107-1.712-.16-2.835.7-2.353.16-.7-.642-1.016-.107-.588-.909-1.872-1.337-.642-.214-.321-.588-.749-.16-.749.214L923.043,530l-1.818-.428-1.926-.053-.588.535-2.3-.7,1.016-1.6.214-.909-.214-1.284-.909-1.444-1.979-4.279-.588-.642-2.139-.749-.588-.856-1.712-1.123-2.193-.481-2.567-1.551-1.551-.909.481-1.123.428-.107,2.567.481.8-.214,3.156,1.337,1.925.374,1.658.909,3.209.267,1.5-.321h.963l1.07.588,1.284-.107,1.712.642.8.856,1.872.749,1.5.428,1.712.8.107,1.284,1.337.214,2.3-1.123,1.123-.374.963.107,1.016,1.016.428-1.177,2.46.909,1.123.963,1.5-.054,1.177.535-.107,2.246,1.551.749.856.642,1.819.374,1.658.8-.642,1.123-.642.16v.7l.588.428.481.8,2.407,1.391.481.428-.107,1.07-.963.749-2.193-1.07-.909.267-1.712-.481-.749-.535.054-.374-2.139-.749-1.016-.214-1.6,1.337Z" transform="translate(-352.342 -237.825)" fill="#00ffc2" stroke="#000" stroke-linecap="round" stroke-linejoin="round" stroke-width="0.1"/>
    <path id="GR" d="M685.131,592.535h1.23l.909-.535,1.177,1.979.909-.053,1.872-.481,1.979.107.749.535,1.391.107,1.23.267,1.765-.374.214.214.053,1.5.642.107.374-.374.909-.321h.963l.856-.428-.214,1.872-.481.214-2.353-.053-4.332.535-2.835.214-.374-.107-.374-1.177-1.765-.588-3.316-.535-.8-.214-1.658.107-.588-.535-.214-.963.107-1.016.749.16.214-.749Zm23.213.588L707.488,592l.588-.267.642,1.284-.374.107Zm-29.257-6.1-.749.107-.374-1.177.267-.535,1.123,1.123Zm33.536,2.193-.909-.214.214-.963-.374-.856,1.23-1.444,1.712-.7.481.481-.481,1.337-.481.7.214.535-.856.107Zm-10.162-5.509-.8.642-.481-.321,1.016-.642Zm3.316-1.177v-.374l.7-.588,1.337-.535.642.321-1.337.749-.8.053ZM693.9,579.645l-.481.7-.7-.374.214-.642.588-.321Zm1.925.856-.588.321-.749-1.177,1.016-1.07.481.374.053.963-.214.588Zm2.888-4.707.321-.856.856-.053v.588Zm-11.606-.374-.535-.214.214-.642.588.267-.267.588Zm16.9-1.979,1.5.374-.374.535-.856.481-.909-.481-.642-.642Zm-41.024.053.214.642-.588.535-.856-.642-.642-.963.481-.588.481.642.909.374Zm28.4.374-.749-.053-1.284-1.123.481-.749.481.642.7.053Zm-30.648-5.188.16.963.481.161.7.856-.107.642-1.123-.428-.535.107-.588-1.07-.7.107.321-.963.749.054.642-.428Zm37.868,1.337-.588.481-.963-.909.749-.7-1.123-1.284-.053-.535,1.123-.267.7.481.321.642.214,1.391-.374.7Zm-37.547-3.263-.7.053-.214-.481.428-1.284.588.16.107,1.337-.214.214Zm18.506-2.888.481.909,2.942,1.337,1.5.16.909,1.391-.107.321.8,2.032.588.481,1.444.16.214,1.016-.481.428-1.016-.374-1.123-.856-.214-.7-1.177-1.551-1.926-.107-.8-.374-.321-.909-.8-.481-1.07-1.016-.8-.588-1.6-.588-.321-.374,1.016-.7,1.123-.267Zm20.271-3.1-.053.481,1.016.8.374.535-.642,1.123-2.139-.428-.428-.428.856-.7-.481-.267-.642.8-1.177-.374-.481-.481.374-.749.8.053.909-.428v-.321l1.23-.107Zm-43.484-.856-.7.16-.642-.428-.642-1.016-1.177-1.177.374-.588.856-.214.749.642-.588.642.428.374.481,1.284Zm36.264-4.6-.374.749-.054.7-2.032-.374-.16-1.23,1.177-.054.428.428.535-.481Zm1.284-3.691-.749.214-.909-.7.749-.267Zm-6.365-1.6-.856.321-.963-.588.588-1.23.7.053.535.7Zm8.5-.909-.267-.374-1.123-.642-2.46-.321-1.23-.481-.481.107-1.07-.535-.642.214-1.337.909-.8-.107-.856-.535-1.177.214-.909,1.016-.963.535-.963-.214h-1.23l-.107.588,1.07,1.123-.267.535.267.535,1.123.053,1.337.7-.374.374-1.712-.642-.642-.053-.642.642,1.872,1.444.267.749-.321.481-.8-.428-1.337-1.712-1.658-.321-.214.321.642,1.284,1.551.909-.321.321-1.6-.535-.588-.856-.214-1.07-2.942-1.5-.749-1.5-1.177.7.214,1.07-.321,2.032.214.7,1.872,1.979.7,1.444,1.391,1.123,1.391,1.712.374.963-.7.588-.7-.267.161-1.016-1.177-.642-1.016.642.8,1.23.267.642-.214.7-.856.428-1.391.053,1.284.749,1.765.535.856.588.8.053.909,1.123,1.391.321.909,1.123,1.07.267.909.428.535,1.123.16,1.551.321,1.123.053.909-.588.267-.7-.856-2.246-1.926-.535-.214-.535.374-1.551.267-1.016.7.8.7.053.642.428.8,1.07.214,1.07,1.284-1.6.535-.588.374-.428-.267-.107-.642-2.3-1.177-.321.321.374,1.284.7.856,1.177,2.3.7,1.979-.107,1.123.535.8.053.8-.909-.642-1.177-1.337-.428-.8-1.177.053-.7,1.765.107,1.016-.856-.588-.107-1.551-1.123-1.5-.481-.214-.7-1.016-.8.321-.053,1.551-.214.535-1.177-1.016-1.23-1.872-.107-.963.749-.909-.16-.642-.856-1.337-1.123-.8-.642-.267-.374-.856-1.07-.7v-.535l1.07-.909.535-1.391,1.016.267.749-.107,1.07-1.284.856.053,2.086,1.123,2.246.642,1.123.535.642.588.856.161-.267-.749.428-.214h1.123l.107-.856-1.07-.321-.428.107-1.284-.749-1.23-.428-1.177-.8-.642.7h-.642l-1.818-.481-1.123.374-2.246.374-.588-.7L664.7,569l-.535-.374-1.016-2.246-.909-1.016-.642-.267-.107-1.016.8-.107,1.284.481.481-.321-.321-.856-1.337-.107-.963.267-1.5-1.177-.8-.909-1.177-.588-.909-1.819-1.391-1.391,1.444.481.374-.374.16-.8.481-.374-.535-1.177.909-.7,1.016-.16.321-.267.161-1.07.642-1.658.909-.428.428-1.391-.588-.963v-.588l2.46-.16.481-.321,1.23.321,1.284-.7.909-1.337.428-.16,1.6-.214,1.765.321,1.551-.535.107-1.123,1.07-.16,1.6.107.535-.535,1.284-.107,1.391.107,1.6-.588,1.016-.107.107-.481,2.246.053.856-.267.642.909,1.284.749.481-.321,1.979.642.909.588,1.819-.481,1.712-.214.963.16,1.337-.642.107-.428-.481-1.444-.374-.535.856-.588.856.267.642.16,1.23.8.481,1.658-1.819,1.337.267,2.353-1.337,1.712-.428.214Z" transform="translate(-236.058 -250.989)" fill="#00ffc2" stroke="#000" stroke-linecap="round" stroke-linejoin="round" stroke-width="0.1"/>
    <path id="HR" d="M591.711,495.757l1.23.214-.588.481-.642-.7Zm6.9.8.856-.053.321.481,3.316,2.032.909.374.642,1.016-2.567-1.658-2.353-1.337-1.658-.374-2.3-1.07-.267-.481Zm-3.37-1.872-.428.053-3-.053-.909-.16-.267-.7.963.107.267.321Zm-2.835-1.23-1.07.053-1.391-.428.16-.588,2.567.321Zm-11.339-8.825-.16.214-1.765-1.444-.16-1.016,1.5,1.444Zm-2.621-3.477-1.016-.107.428-.588.588.7Zm-2.246.8-.481-.053-.909-2.246.214-.642-.428-1.07.481-.16.267,1.123.535.481-.053.856Zm1.979-2.621-.8.16-.535-.535-.7-.107-.535-.535.535-.374.267-.642,1.765,2.032Zm26.476-7.862-.374.8.856,1.444.107.856.7.214-.214,1.07.642.535,1.6.535.481.8-1.23.054-.909.214.374,1.391-.535.856-1.177-.107-.7-1.177-.588-.428-1.177-.107-1.391-.374-.963.107L599.2,478l-1.177.535-.856-.7-.909.321-1.5-.374-1.337-.054-1.444-.856-.8.642-1.712-.16-1.444,1.712-.963-.535-.909-.963-.963-.214-.642.321-.161,2.674.053.749,1.016.7,1.819,1.712.7,2.139,1.23,1.284,1.5,1.23.909,1.07,2.674,2.193,1.284.588.214,1.177.8.856,1.6,1.337-.16.856-1.872-1.5-1.391-.8-1.658-1.5-2.032-.588-1.444-.642-1.765.321-.963-.107-.374-1.177-3.1-2.086-2.3-2.139-.428-.7,1.658-.642-.749-.428-2.086-1.819-.642-.856-.053-2.193-.428-.909-1.551-1.177-.588-.588-1.123-.374-.749.481-.16,1.016-1.6,2.674h-.7l-1.658-2.246L570,477.251l-.7-2.086.374-.267.267.321,1.765.428.749-.7.588.267,1.925-.054.321-.16.642-1.177,1.391,1.123.8.374.7-.267,1.07.374.856.107.642-.214-.428-1.23.374-.374-.535-.588,1.123-.535,1.123-.321.214-.588-.107-1.177-.481-.481.214-.749,2.353-.909.374-.535h1.07v-.909l.481-.428,1.337.321,1.551.642.909.642.481.7,1.444.963,1.177,1.177.7.374,1.337.321.7.7,1.765.481,2.621.107,1.337-.481.588-.749,1.551-.214Z" transform="translate(-197.033 -216.522)" fill="#00ffc2" stroke="#000" stroke-linecap="round" stroke-linejoin="round" stroke-width="0.1"/>
    <path id="HU" d="M637.743,436.777h.8l.749,1.23,1.177.428.481.588,1.23.214.481.374.374.909-1.177,1.23-2.46.588-1.016,1.284-.642.535.054.909-.749.749-.374,1.337-.749.8v.642l-.856,1.444.107.7-1.123.8-.8,2.514-.7.481-1.391-.16-1.337,1.07-.749-.267-1.712.481-.535-.267-1.5-.16-.588.107-1.551-.214-.535.16-.8.856-1.177.535-.856-.267-1.123.7-1.551.214-.588.749-1.337.481-2.621-.107-1.765-.481-.7-.7-1.337-.321-.7-.374-1.177-1.177-1.444-.963-.481-.7-.909-.642-1.551-.642-1.016-1.177-.749-1.765-1.284-.053.963-.909,1.337-.267.161-.963-.588-.856.267-.374-.214-.8,1.177-.642.267-.749-.267-.588-1.391-.374.7-.749,1.337.481,2.086-.16-.374-1.07.321-1.016.321-.374,1.123.16,2.246,1.444.856.374,2.514.053,3.744-.214.321-.535-.267-.7.214-.535.749-.374,2.3-.214,1.284-.321.535-.8.374-.107,1.872.749,2.674-1.337.856-1.872.963-.214,1.444.053,1.337.321,2.46-.374.749.481,1.177,1.177.321.107,2.3-.588Z" transform="translate(-211.08 -202.149)" fill="#00ffc2" stroke="#000" stroke-linecap="round" stroke-linejoin="round" stroke-width="0.1"/>
    <path id="IE" d="M305.764,343.255l.374.588-1.177.214.8,2.781.321.481v2.193l.481,1.712.053,1.337-.7.963-.481,1.123-.107.963-.856,1.123-.8.481.856.8-1.5.428-1.391-.16-.7.428-2.086.107-1.979.374-.909.963-1.337.374-.535.535-1.23.428-.909-.642-.535.107.107,1.123-1.551.7-.963.16-.535.374-3.1.749-1.016-.267-1.765.428-.642-.053.856-.963.856-.7-2.032.321-.749.267-.321-.321,1.712-1.016-1.765.053-1.6-.214-.214-.535,1.551-1.23,1.284-.481-.053-.481-2.728.053.267-.588.909-.535.963-.053.8.321.588-.428-.321-.909,2.086-1.23,1.6-.16,1.765-.374,1.765-.428L287.9,353.9l-1.23.963-1.391.16-1.016-.267h-1.123l1.444-1.07.856-.909-.428-.374,1.07-1.23,1.926-.535-.856-.7-2.086.107-.749-.7-1.391.053.214-.642-1.872-.107.267-.535-.321-.588,1.5-.321-.107-1.07,1.016-.428,1.07-.214.053-.588-1.07-.107-1.07.214.428-1.123-.428-.535-.214-.909-.481-.535,1.5-.107.642-.267,2.514.053,1.016.7.909-.642,2.567.481.321-1.391,2.032-.8.642-1.07-1.979.214-1.926-.535.374-.428,1.123-.374,1.016-.856-.16-.588.909-1.444,1.658-.428h1.284l.856-.481.642,1.07-.535.535.321.481.642-.428-.267-1.123.481-.7,1.016-.16.321-.428,1.712.909-1.337.8-.267.374-1.016.481-.535,1.23-.642.856-1.177.428-.856-.053-.107.428.535.749-1.551.481-.535.749,1.444,1.07.107.535,1.123.214.428.374,1.551.16,1.284-.963-.267-.481,1.016-.856.7.267.963,1.444.749.267-.053.8h1.551l1.123-.214Z" transform="translate(-61.863 -154.519)" fill="#00ffc2" stroke="#000" stroke-linecap="round" stroke-linejoin="round" stroke-width="0.1"/>
    <path id="IS" d="M196.3,176.039l.642.053,1.5-.428,1.177-.588.267.588-1.337,1.284,1.177.481,1.07.16-.053.909-.909.856.428.16,1.872-.267.535,1.23.8-.107,1.284.16.749.642.642-.16.267.481-.374.642-.8.321,1.123,1.551v.588l-.535.374h-.7l-.535,1.123-.642.588-1.07.535-1.391-.267-.588.8.107.749-.7.7-2.835,1.123h-1.337l-1.391.267-3.316,1.07-2.514,1.5-1.07.374-1.658.16-.963.267-3.156.428-1.07.267-.642.588-.267.749-2.139.588-2.032.374-3.423-.267-2.888-.7-2.407-.16-2.032-1.337-1.551-.535-1.926-.963-1.23.588-6.632.16-.428-.267-.107-1.123.588-.428.7.642,2.674-.588,1.444-1.016,1.337-1.444-1.872.642-.107-1.016-.481-.588-.909-.428-.16-.428.588-.481-1.23-.642-1.391.053-3.53-.267-2.032.535-1.07.053-.481-.535v-.588l.8-.16.963.053,2.193-.321.749-.321.428.267,1.926-.588.535.107,2.139-.107,2.353-.053.588-.428.214-.588-1.5.481-1.979-.267-.321-.481,1.926-.856,1.444-.428-.428-.7-1.712.107-.374-.428-1.391-.214-.963.16-.481-.267-1.284.321-2.781.481-1.765.481-1.658-.588-1.284-.107.749-.749,1.07-.053.909.428.053-1.712.642.16,1.5.588-.374-1.5,1.177.053-1.177-.856.267-.535.856-.16.428-.535h1.284l1.23.588.107.749h1.123l.588-.428.481.321.267.642h.642l.214-1.177-1.926-.588-.16-.749,1.979-.053-.909-.588-1.6.107-.749-.214,1.391-.642h1.819l.749.107,1.23.909,1.07.321,1.658,1.23,1.177.481v.642l.374.428-1.23,1.819.481.374-.428.856,1.016.321.535.909.481-.963.8-1.016,1.23-.7.481.053.481.535.481.053.749-1.07.374-2.3L170.2,177l.963.374.7.856,1.391,1.123.963-.267.053-1.23.535-.7,1.07-.16,1.177-.428,1.23-.107.909.749.642.749.909.588.374.963.481-.16-.107-.909-.749-1.391.16-.481,2.193.107,1.6,1.23.7-.16,1.926-1.5,1.23.428.963.053,1.5-.428.428-.642-.481-1.23.321-.214,1.391-.321,1.444.053,1.391,1.123-.053.535.856.428Z" transform="translate(0 -80.422)" fill="#00ffc2" stroke="#000" stroke-linecap="round" stroke-linejoin="round" stroke-width="0.1"/>
    <path id="IT" d="M547.481,531.644l-.642,1.337-1.5,2.3-.8,2.728.16,1.07.856.749-.374.267.856.963.053.7-.963,1.016-.214.909.053.8-1.551-.321-.749.16-1.979-.749-1.016-1.5-1.6-1.07h-1.6l-.749-.267-1.551-1.016-1.6-.749-1.391-1.123-.909-.214-.8-.535H527.9l-1.23-.856-.7-1.23.7-1.979.749-.428.481-.642,1.23,1.23.963-.428.749-.856,1.284.053.267.481.749.16,1.337.856.749.214,1.819-.535,1.6.214,1.5-.267.909-.321.642-.535.749-.16,1.872.16,1.07-.642.428.107,1.07-.642.588.588Zm-41.88-22.2.374.481.963,2.674-.321.856-.7,1.07.428,1.5-.321,6.151-.321,1.551-.481.214-1.551-.642-.8.16-.642-.321-.16,1.6-.963,1.123-1.6-.107-.374-.321-1.284-2.032-.214-2.3.321-.7v-1.337l.588-.053v-.909l-.963-.642v-1.016l.374-.749-.053-1.391-.428-.481-.428-1.23-1.177-1.284.054-1.819,1.818.321.7-.16,1.658-.8,1.123-1.337.749-.267.8-.963.374.481,1.177.428.642.8.481.267-.374.749.535.428Zm4.439-16.474.16.749-1.337.267-.588-.588,1.551-.107.214-.321ZM530.312,462.7l-.107.481-1.765,1.23.374.749,1.23.374-.856,1.123.16.535.7.107-.214,1.07,1.016.588.8.7.107.7-.8.053.374-.321-1.07-1.177-1.07.481-1.712-.481-1.123,1.07-.8.214-.909.588-1.712.642-.963-.214-.535.374-.214,1.658.428.321.8,1.391.909.588-.374,1.016-.481.374-.7-.267-.16.909.481,2.407.749,1.712.642.7,1.444,1.177,1.444.588,2.728,1.979,1.5.588.374.374.963,1.5.856,1.712.963,2.728.7,1.337,1.23,1.551,2.567,2.193,2.3,1.551,2.139,1.016,1.6.16,3.744-.214,1.391.374.214.642-.214.481-1.551,1.123v.909l.8.642,3.8,1.712,3.851,1.391,1.177.749,1.444,1.123,3.423,1.551.588.749,2.139,1.6.963,1.284.267.963-.8,2.353L564.7,518l-1.016-.7-1.658-2.888-2.674-.267-1.551-.7-.374-.749-1.23-.214-.7.481-.749,1.07-.8,1.6-.8,2.3v.909l.588.909,1.551.535,1.284.8.856.856.16,2.032.481,1.123-.481.7-1.016-.16-1.337.374-.909.749-.374.749.267,1.818-.16.749-1.765,1.337-.856,1.337L550.9,534h-2.3l-.588-.8-.053-1.177.321-.7.856-.374.481-1.5-.267-1.07.588-.856,1.5-.374V525.6l-.749-.7-.749-2.728-1.284-2.3-.749-2.032-.588-.963-.749-.535-1.979-.16-2.46-1.391-.16-.588.321-.588-.588-1.5-1.07-.909-1.391.321-.642-.053-.053-.8-1.07-.7-1.444-.107-.374-.374-1.391-2.139-.909-.909-1.23.053-2.086-.481-1.07.374-1.712-1.391-1.5-.481-3.049-2.835-.963-1.07-1.872-1.177-1.23-1.712-.963-.642-2.139-.749-.16-.7-1.658-1.658-.909-.535-.7-1.123-1.337-.267.053-1.444-.642-1.872-.909-1.177-.642-2.835-.428-.8-.963-.588-2.139-.642-3.049-1.819-.588-.053-1.819-.7-1.123-.107-1.391.642-1.658,1.712-1.337,1.819-.481.321-1.819.642-1.6.267-.107-.8,1.123-1.391-.16-1.07-1.765.321-2.728-1.284-.481-.481-.053-.749-.374-.7.749-1.337.428-.374-.267-.909-1.712-.749-.8-1.658.428-.214,1.016.107.909-.7.642-.16.428-1.337-.963-.856-.909-1.391-.481-.321-.053-.856,1.391-.909.749.374,1.284-.267,1.391-.535,1.658.428,1.284-.749.856-1.177-.321-.8,1.819-1.551.535.321.107,1.337,1.284,1.07,1.177.321-.214.642.7.642.481.749.642-.374-.374-.909.107-.535,1.177-1.391.267-.588v-1.551l1.07-.054.428,1.123,1.07.428,1.551-.588.374.053.749,1.016.642-.16-.8-1.872.321-.963.7-.16.535.481,1.016.107-.267-.963.267-1.658,1.6.16.481.428,1.123.214.588-.214.642-1.177.749-.321,1.819-.16,1.658.107,2.514-.8v1.23l1.658,1.872.588.267,4.6.8,2.139.16,1.391.267Z" transform="translate(-157.403 -212.615)" fill="#00ffc2" stroke="#000" stroke-linecap="round" stroke-linejoin="round" stroke-width="0.1"/>
    <path id="LI" d="M518.8,456.965l-.642-.053L518.1,456l.267-.8.588,1.337Z" transform="translate(-173.218 -211.266)" fill="#00ffc2" stroke="#000" stroke-linecap="round" stroke-linejoin="round" stroke-width="0.1"/>
    <path id="LT" d="M677.852,323.43v.963l-.374,1.658,2.086.535-.7.535-.214.588-1.925-.053-.535,1.07-.428.321-1.391.321-.588,1.6L674,332.2l-.535.8-.267,1.07,1.016.267.481.588v.535l-1.07.107-.909-1.23-.535.374-1.123.267-.749.642-1.07-.107-.428,1.391-.963-.053-1.765.7-.856-.481-1.979.16-.856.16-1.551-.214-.428-1.6-.588-.481-2.407-1.177-1.23-.374-.321.321-.7-1.07v-1.123l.535-1.658-.7-.7-.749-.321-.481-.7-3.049-.053-1.284-.321-2.086-.749-1.07-.642-.963.107-.321-.642.107-.856-.588-1.284-.856-1.551-.374-2.032,1.5-.909,1.926-1.016,2.514-.749,3.156.267,2.3-.053.535.481.856-.374,2.621.267,1.23.053,1.979.481,2.46-.214.909-.7,1.23-.107,1.284,1.551,3.263.535.481.214,2.888,1.658,1.391,1.123.8.374,1.23.267Z" transform="translate(-231.453 -147.263)" fill="#00ffc2" stroke="#000" stroke-linecap="round" stroke-linejoin="round" stroke-width="0.1"/>
    <path id="LU" d="M473.26,411.374l.16,1.177.8.856,1.5.588v.749l-.481.481-.321,1.6-.7-.374-1.07.321H472.4l-1.123-.642.588-.909-1.07-1.284.107-.909.749-1.337.7-.7Z" transform="translate(-151.217 -190.707)" fill="#00ffc2" stroke="#000" stroke-linecap="round" stroke-linejoin="round" stroke-width="0.1"/>
    <path id="LV" d="M679.18,297.572l1.016.16.267.588,1.712.909.374,1.177-.428.856-.16,1.658.963-.16.535.321.16.642.909,1.123.7.428,1.016,2.246-.16.909-.7.107-.749.428-1.337,1.284-.214.909-1.658-.053-1.6-.214-.588.16-.642.8-1.391.321-1.23-.267-.8-.374-1.391-1.123-2.888-1.658-.481-.214L667.146,308l-1.284-1.551-1.23.107-.909.7-2.46.214-1.979-.481-1.23-.053-2.621-.267-.856.374-.535-.481-2.3.053-3.156-.267-2.514.749-1.926,1.016-1.5.909-.428-1.5-.321-2.942.053-1.5,1.016-.856.428-.642.321-2.407,1.337-1.925,1.284-.214L648,296.5l1.872-.481.749,1.016,2.621,1.6.642.535,1.23,1.819,2.353.963,1.658-.321,1.925-1.284.535-.588v-.588l-.642-2.514-.588-1.07.053-.7,4.493-1.5.8.535.588-.374,3,1.337,1.23.267.321.374,1.872,1.444,1.5.588,2.139-.642,1.819.535,1.016.107Z" transform="translate(-230.802 -136.007)" fill="#00ffc2" stroke="#000" stroke-linecap="round" stroke-linejoin="round" stroke-width="0.1"/>
    <path id="MD" d="M739.539,461.571l-1.07-1.23.481-.374-.749-2.674-.053-1.391.481-2.567-.267-1.551-.749-1.23L736.865,449l-1.6-1.123-.7-.909-1.123-.963L732.1,444.3l-.8-.7-1.6-2.621-1.337-1.6-1.337-.856H725.9l.107-.321,1.23-.749.374.107,2.139.053.642-.535.428.16.856-.535,1.872.535,1.926,1.284,1.337.16.321.642,3,.321.749,1.016.749.535.749-.374.749.749.321,1.23-.321,1.658.321.642,1.23.642,1.551,1.07v1.284l.481,1.016,1.07.7,1.123.428.535.856.107,1.551,1.551.909-.321.374-1.551.214-.642-.7-.856.321-1.123-.428-1.016-.107-1.123-.535-1.337.856.267,1.123.535.909-.214,1.07-1.23.909v.7l-1.337,1.551.267.749-.214.535-1.07.107Z" transform="translate(-269.873 -202.661)" fill="#00ffc2" stroke="#000" stroke-linecap="round" stroke-linejoin="round" stroke-width="0.1"/>
    <path id="MK" d="M673.195,531.474l1.765,1.712,1.819.963.909,1.765.481.535-.267.909V539.6l-1.07.16-.107,1.123-1.551.535-1.765-.321-1.6.214-.428.16-.909,1.337-1.284.7-1.23-.321-.481.321-2.46.16-.7-.588-.856.107-.7-1.284-.642-.588-.642-1.177-.107-1.016-.374-1.07.428-.428-.16-1.123.267-1.391.909.161.267-.428.107-1.391,1.819-.8.535-.053.856.642.8-1.016,1.123-.214,1.177-.16,1.07-.481,1.016.161,1.23-.428.749.374Z" transform="translate(-239.686 -246.57)" fill="#00ffc2" stroke="#000" stroke-linecap="round" stroke-linejoin="round" stroke-width="0.1"/>
    <path id="ME" d="M638.353,512.9l.214.642,1.391.909,1.016,1.07,1.6.856,1.123.267,2.835,1.551.053.535-.856.214-.107.374-1.07.214.481.8-.107.7-1.819.642-.428-1.123-.588-.16-1.712,2.835-.428.16-1.337-.107.856,1.016.909.428.161.321V526.7l-1.123-.642-.481-.963-1.658-1.551-1.872-1.07.053-.535-.856.053-.642-1.016.588-.535.053-.428-.588-.856-.321-1.6.267-.374.909-.107-.053-.8.267-.909,1.07-.909,1.23-.107-.749-1.177Z" transform="translate(-226.988 -238.104)" fill="#00ffc2" stroke="#000" stroke-linecap="round" stroke-linejoin="round" stroke-width="0.1"/>
    <path id="NO" d="M390.787,140.01l.053.909-.535-.053-.374-.588-.107-1.07.374-.267Zm-.963-5.937h-.963l.16-.7.481-.16Zm17.383-17.062-1.23-.107-.535-.428,1.5-.428.374.267Zm1.926-2.46-.16-.481,1.444-.321.481.535-1.765.267Zm14.976-8.879-2.246.16-.16-.588,1.123-.428h.642Zm3.637-5.616-1.07.16.053-.588.963-.16.053.588Zm2.193-3.049-.053-.588.535-.642.535.214-.16.8-.856.214ZM431.6,83.69l-.8.374.588-1.391.588-.374.214.8Zm4.546-2.781,1.23.107-.267.428-.749.16-.588.428-1.016.107-1.016.535-.856.16-.214-.642.481-.535h.7l.535-.642,1.765-.107Zm6.632-4.814,1.177,1.123-.16.8-.642.374-1.765.053-.856-.481-1.177.321L438.5,77.7l.856-.749,1.391.214.267-.909.909.16.214-.8.642.481Zm3.37,2.674.7-.588.8-.214.321-1.177.963-.267.856.535.481.642-.107.588-1.658.642L447.162,80l-.856-.107-.374.374-1.284.321-.909-.481-.481.481-.749.214-.642-.214-1.551.8-1.5.16-.535-.588,1.658-1.016,2.728-.321,1.551-1.23.214-1.337.321-.481-.7-.321.107-.909,1.284-.909.7-.749.8-.16.481.588-.588.749-.856.642.588.8.321,1.284-.749,1.177Zm8.29-7.328.749.428.8-.16,1.23.374.535.8-.642.481.214.909-2.032.267-.481-.267-.8.481-.749.749-1.177-.321.107-.856-.16-1.23.374-.267,1.551.16-.214-1.07.7-.481Zm66.323-1.391-.963.214.107-.963.856.749Zm-49.421-2.032-.7.214-.963-.16-.374-.535L470.482,67l.909.16-.053.856Zm-8.076.16.535.374.8-.267.588.535-.749.428-.428.642-1.07.053-1.551,1.23-.053.428-2.674.267-.8-.16.909-1.444h.909l.909-.428-.16-.428,1.337-1.07.321-.909.749-.535Zm2.567-1.07.749.107.7.856h-1.23l-1.07-.963Zm19.95-2.3.267.588-1.765,1.123-.856.053-1.123-.642.053-.428,1.016-.481.481.053,1.444-.749.481.481Zm2.086-.16-.963.267-.909-.481-.107-.856.428-.16,1.712.642-.16.588Zm-3.423-1.712-.214.428-1.444,1.123-1.177.374-.963-.16-.428.321h-1.07l-1.07-.321-1.07-.642,1.872-.053.321-.267h.8l1.5-.214.588.16,1.123-.749h1.23Zm32.413,12.569-.909-.7v-.374l1.712-1.551.374-.535-1.391-1.444-1.926-.428-2.246-.588-2.246-1.07-.963-.642-1.551.16-1.872.856-.481.107-2.032-.214-1.123.107-.909.963-1.391.909-.374,2.032-.321.909.374,1.712-.8.749-1.123.16-.856.7-.267.909-.7.321-1.391-.428-2.086-.428-1.925-.588-.8-.053-.642.642-1.979.481-.963.053-.428-.267-3.691-.321-.749-.963-4.225-2.942h-1.926l-1.016.588.535.749-.267.321-1.016-.214H472.14l-.267.214-2.728.107,1.391.856.053,1.07-.749,1.016-.856.481,1.551.481-1.337.856-.535-.053-4.6-.909-1.551-.053-2.193-.481-1.123.267v.428l.428,1.926L458.5,83.048l-3.37-.963-.8.481-1.979,1.016-.8,1.872-.588.588-1.444.321-.267.588,1.444,1.23.535.7-.107.749-.8.535-1.765,1.551-1.6,1.551-.7.481.535,1.337-1.765.8-1.284.267-2.032.214.749,2.086-.321,1.444-.053,2.514-1.765,2.674-2.353,2.674,2.514.856.588,1.551.053.642-.909,1.177-3.8-.481-1.765.214-1.765.8-1.872,2.032-.642.535.267.8-1.07,1.5,1.444,2.193-.588.588.321,1.5-.053.963,1.337,2.353v.856l-.481,3.423,2.032,1.123.642.214,1.819,1.444-.214,1.016-.7,1.337h-1.284l-.963.321.16.856,1.658,2.621.267.749-.321,1.123-.053,1.5-1.016,1.07-.7.428-1.391.374-.481,1.284-.8.8.856,2.353-.321,2.086-.374.749-1.016.107-.535-.963-.214-.535-3.209-.642-1.23-1.551-.214-1.658-1.337.642.321.588v1.23l-1.337,2.086-.588-.107-.7.428-.7.107-.321-.535-.588.107-.428.535-1.819.7.535.374-.909.535-.321.481-1.444.8-2.3,2.086-1.23.588-.856.642h-.749l-.963.481-2.46.481-1.658-.214-1.123.214-.588-.374v-.588l-.642-.053-.428.642-.856-.214.374-1.284-1.658-.053-2.032-.856-.481-.428-1.658-.7-.749-.749-.428-.856.16-1.926.321-.267,1.444.428,1.5.7-.053-.642-1.284-.856.428-.963-.107-.856,1.391-1.123-.214-.374-1.818,1.07-1.658.481-.588.642-.588.321h-1.123l-.267-.481.267-1.765.642-1.444.963-.535,1.819.374.535-.535.7-.107,1.284-.642-2.193.267-.642-.535,1.5-1.284.642-.749.16-.8,1.177-.909.963-.428.856.321.8-1.016-2.674.588-1.07.588-1.444,1.5-.107.588-1.07.481-.8.8-.321.642-1.5,1.016-.749.16v-1.284l.588-1.07-.16-.856,1.712.107.963-.642h-1.444l-.749-.374-.642-.8-.321-1.016.588-.963-1.177-1.07-.267-1.177-.053-1.337.481-.267,1.123.214,1.284-.107,2.781-.481,1.819.321.749-.053,1.07-.374,1.016-.053,1.177.642.374-.267,2.888-.642-1.6-.8.053.749-1.926.16-1.712-.321-.7-.321-.267.7-.588.16-1.819-.267-2.514.16-1.123.374-.749-.053-1.337-.642-.481-.481-.16-1.391,1.5-.16-1.016-1.23-1.016-.7-.107-.749.374-.7.8.107,2.032-.053,3.209.8,2.621-.16-.428-.321H396.4l-3.851-.7-1.177.053-.642-.16-.374-.535.214-1.016.588-.214.642.321,1.016-1.23,1.016-.535,1.07-.267,1.07.535.7-.053,2.139-.428-.7-.267-1.872.267-.107-.267,1.284-1.23,2.246-.214,3.156.267,1.23.428.214-.963,2.835-.749-3.637.428-.963-.267-2.621.374-.054-.7,1.23-1.23,2.193-.481,1.016-.588,1.658-.107,1.391.16.642.7,2.353.909-2.728-2.139.588-.909,1.765-.214v-.856l-1.177-.16v-.642l1.016-.481,1.5-.374,1.712.428-.321.7.481.267.909-.8,2.086-.428,1.5,1.123.267.588.588-.267,1.444-.267,1.444.16.963-.107-.535-.7.214-.535,1.284-.535.909-.16,1.391-.642-.428-.535-.749-.16,1.551-.8-.909-.321-1.284.481-.856.481.8.535-.588.588-3.263,1.5-1.6.428-.749-.053-1.016-1.337-1.123-.053.7-1.177.856-.428.749-1.23,1.23-.7,1.712-1.765,1.5-.588.481-.588,1.6-.8,1.6-.481.16-.535-1.444.481.214-1.123.749-.535,3.637-1.5.856.7,1.123-.107,1.23-.856-.16-.374-1.123.535h-.8l-.214-.321-1.123-.267-.16-.642.7-1.5,1.819-1.765.267-.7.7-.374.909.107-.107-.588-1.123-.588,3.316-.588h1.6l1.284-.481.267-.535-3.423.588-1.284.053-.428-1.444.107-.8,1.016-1.177.749-.107.909-.588.053-.8,1.23-.428,1.123-1.123,1.23-.267.749.107,1.6-.374,3.53-.053.053-.321-3.37-.16-1.872.107-.214-.321,1.5-1.444,1.07-.535.909.107.963.535.321-.428-.856-.8.374-.8-1.391.588-.963.16-.481-1.07,1.23-1.07h1.23l.16-.8,1.765-.7L447,81.5l.8-.321.321.214.481,1.23.8.16.535-.428-.7-.588-.588-.963,1.07-.8,1.23-.107,1.391.374,1.23-.107.481-.642-3.37-.053-.428-.481.642-.642,1.177-.428,1.337-.053,1.284-.749.481-.588.16-.856.749-.7,2.086-.428-.321-1.177.428-.749.535-.321,1.123.8.963.267-.267-.749.16-.642h1.123l.535-.267.16-.7.749-.642L465.882,70l.267,1.337.374.749.428-1.5.856-1.123,1.284-.481.481.588-.214,2.3-1.016,1.284.8-.107,1.337-1.23.321-.642-.374-1.5.321-.428,1.872-.053,1.016.214.374-.8.909-.053.963.481,2.193.749-.7-1.177-.535-.428-1.123-.267-1.177-.535.642-.535,1.284.16,1.07-.428,1.177-.107.588.321.428-.535,1.337-.267,1.5.481.856,1.444,1.284.749-.053-.749.321-1.016,1.23-1.07,1.123-.535.749-.053,1.551-1.819-.856-.535,1.765-1.23.588-.053,2.888,1.123.8-.481,1.819.428-.428.535-1.658,1.551-.267.428-.053,1.177-.642.749.428.749.856-.214.963-.7.053-.7,2.3-1.979,1.016-1.123,1.23-.909.8-.16.481.588-.107.8.107,2.3,1.979-.749.588-1.6.588-.374-.428-.749.214-.588,1.23-.7,1.177.214,1.765.16,1.444.428.107.749-.428.481-1.551.588.374.374,1.07-.321.481,2.942.481-1.123.535-.374.053-.8.428-1.016.963-.7h1.444l1.765.909,1.337.16.963.428,1.284-.374,1.07.535.053.535,2.032.16,2.032.856.321.856-2.353.535-.963.535-1.765.214-6.151-.374.214.374,4.439.8.321.267.214,1.123.963.374,1.872-.107v-.7l1.712.321,2.032.107.588.909-.16.8-1.284.053-2.246-.749-.214,1.23-.588.481-3.1.7-.588,1.391-1.177.535ZM495.192,60.691l1.979.267,1.177.749-1.925.267-.909-.053-1.07-.963.749-.267ZM313.553,62.776l-.053-.535,2.407-.8,1.016-.749,1.819-.267-.107.963-1.6.428-1.765.267-1.712.7ZM457.538,38.708l-.535.267-1.016-.428-.428-.642,1.6-.053Zm5.135-26.8,2.086.107,1.07,1.016.749,1.07.7.107L469.786,14l1.819.374-.749.588V15.6l2.942.7.963.053,1.6-.214,3.477.909-3.53.588-1.07,1.016-1.979.7h-1.391l-1.23.7-1.177.053-.8-1.016,1.177-.7-1.658-.214-.642.267-5.616.535-.588-.107-.481-.642,1.5-.321.107-.588L463.8,16.03l-2.942-.856-1.07-.642L459.357,14l-1.337-.481v-.535l-.909.053-.214-.642,5.776-.481Zm24.711-.321h-.7l-1.391-.428.374-.535,1.712.963Zm-73.6.214,1.872.8,1.016.267,1.23.8-.374.481-1.07-.642-1.926-.7-1.23-.107-1.765-1.337-.8-.428-.428-.909,1.926.374.856.535-.16.428.856.428Zm83.224-1.819,1.444.053-.053.321-3.9-.214-2.032.374.214-.481,1.284-.321,1.979-.053,1.07.321ZM438.23,4.209l.749-.321,2.888.428L443.2,4.8l.7.535-1.016,1.016.909.535,1.712-.909,1.444.16.909.481.535.588-.107.749,1.658.588,1.819-.107,1.284.16.8.535,1.016-.107.107-.428,1.391.107,1.6.428-1.123.481,1.123.428,1.819.321,1.123.321-.8.749h-1.712l-1.551.16-2.888.16-1.6.856-1.337.963-.214.856.321.588-.8.267-1.765.107.107,2.086-.428,1.016-1.765.16-.963.588-.642,1.123-1.123,1.07.535.535-1.123,1.016.642.963-.535.321-1.123.16-1.177-.16-1.23-.588L436.144,22.5l-2.3-1.284-3.209-.7-1.765-.856-.8-.7.16-.749,1.5-.107,1.551.374.909-1.016,6.044-.588,3.9-.107-1.016-.7-3.691.374-2.3-.107L434,16.4l-1.123.321-2.3.267-2.46-.053L426.57,16.4l-.7-1.07.642-.321,2.032.053,3.423-.481,1.6-.428,1.658-.053-.267-.428.963-.214,1.284-.107,3,.053.107-.321-1.391-.321-.481-.321,1.391-.963-1.177.053-1.6.7-.963.267-2.46.16-.909-.856.481-.642-.428-.374-.7.7-1.123.16-1.07-.481-1.016.267.374.535-.321.535,1.07.481-1.23.321-1.123.588L425.554,14l-2.407.053-2.46-.856-1.177-.642-.963-.642L417.1,11.59l-.909-.428-.214-.588-.749-.374-.374-.642h2.353L416.3,8.6l.267-.856-1.819.053.214.481-1.177.535-.642-.107-1.23-1.016L410.631,6.4l.214-.7-.642-.535.8-.374,1.337.481.428-.374,2.032-.214,2.46.588.214-.588,2.246.267,1.6-.321L424,4.477l1.07.214-.535.588-3.37.16-2.139.7,3.049-.107.535.053.321.588,1.6.267,1.23.535L426.2,7.2l-.321-1.177,2.353-1.23,1.123.214,1.123.481,2.139,1.6,1.23,1.016,3.263,1.5-.374-.8L434.486,6.4,434,5.493l.481-.909.588-.267-.214-.7.7-.267,1.284.16,1.391.7Zm72.046-1.23L506,3.193l-.481-.16,8.4-.749.909.267Zm-63.6-1.016-.963.321-1.712-.267.481-.374Zm9.948.267,3,.053.8.481,2.942.588.428-.8-.321-1.177,1.016-.053L465.4,1l1.658.16.107.7L466.9,2.6l1.123.053,1.5-.16,1.016-.588,1.284.053.7-.321.749.321,4.386.374,1.765.321H482.2l1.979.107,1.5.535.588.909-.481.214L482.2,5.493l-.856.374L480.056,7.1l-2.193.374-1.872-.16-1.6.374-1.016.535-.8.107-4.921-.214-1.177-.588.642-.481-4.386.16-4.921-.053-.535-.267-3-.267-2.246-.588.588-.267h3.1l-.374-.8L453.794,4.9l-.963.214-2.3.107-2.139-.053-1.016-.16-2.032-.535-.374-.428,1.5-.214,1.123-.374-2.407-.16-1.016-.16-.321-.481L447,2.551l2.674.428L449.3,1.8l2.086.588.107-.588-1.07-.749L451.494,1l2.407.374,2.728.856Z" transform="translate(-78.05)" fill="#00ffc2" stroke="#000" stroke-linecap="round" stroke-linejoin="round" stroke-width="0.1"/>
    <path id="PL" d="M620.751,344.651l.321-.321,1.23.374,2.407,1.177.588.481.428,1.6,1.123,2.728,1.551,2.621.909,1.926.481,2.086-.321.856-2.139.909-.428.267-1.07,1.444v.642l1.765.7.963.535.428.535-.107,1.284.214.588-.428.8.053.7.535.856.642.963v.7l1.444,1.5,1.016,1.5.749.535-.642.7.963,1.391.053.7-.642.963-1.6.267-2.567,2.46-1.284,1.444-1.819,2.353-.321.535.8,2.032-.054.963,1.016.749-.214.481-1.765-.374-.481-.107-3.049-1.016-.428-.749-.535-.374-1.658-.535-1.925-.16-1.712.107-.749.8-.963-.053-1.284-.535-1.6.054-1.23.535-.588,1.123-.909-.321-.749.214-.321-1.444-.749-.214-1.6-1.6-1.177.7-.535.909H601.6l-.267-.8-.7-.107-.267-.856-1.5-1.177-.267-.963-1.444-.428-.267.107-1.872-.963-.963.535-.535-.321-1.444-1.23.749-.267v-.856l-1.925.374-1.765-1.016-1.177-.321h-.7l.909,1.284-1.872,1.337-.535-.214-.8-1.016-1.07-.963-.856-.481.856-.642.374-.588-.963-.642-1.712.374-.428-.481-1.444-.588-2.46-.588-.535-.588-.16-.588-1.765-.428.054,1.016-1.123.214.856-1.926.214-1.23-.856-1.712-1.177-.481v-.856l-1.016-1.658.428-.588.374-1.391-.428-1.016-1.07-1.23.321-1.391-.749-.909-1.765-1.123-.856-.749.374-.856,1.016-.963.16-1.444-.963-2.193-.374-1.391,1.5.481.374-.267-.053-.963-2.193-.374-.053-.642,1.07.214,2.032-.749,3.477-.963,3.691-.909,1.765-.267,1.07-1.177,1.016-.909,2.032-.374.7-.428,1.5-.642,3.53-.642,2.942-.214,2.888,1.23-.481.16-1.6-.642,1.177,1.872.588.642,1.07.481.909.16,2.621-.267,1.177-.588.267.053,3.53.214,12.248.481,3.744.053Z" transform="translate(-196.335 -158.054)" fill="#00ffc2" stroke="#000" stroke-linecap="round" stroke-linejoin="round" stroke-width="0.1"/>
    <path id="PT" d="M293.953,575.945l-.642.107-2.407,1.337h-.7l-1.337-.588-2.407-.214-.8-.16-.963.374h-.8l-.588.535-.428-.16.535-1.123.856-2.193v-1.391l.214-1.177-.16-1.123-.374-.749.588-1.872v-.963l-.481-1.23,1.5.16-.909-.749h-.8l-1.23.481-.8.053.053-.749-.267-.963,1.07-.321.856-.909-.16-.856-.642.588-.321.749-1.5.374-.8-.267v-1.016l.321-.909.214-1.23.428-1.177-.107-.749.856-.7.749-1.016,2.3-4.76-.321-.535.909-3.53.642-1.23.321-2.3-.107-1.07-.374-1.07-.374-2.3v-.749l-.481-.963.053-.535.749-.909.642-.588,1.016-.481,2.193-.535.535.963-.7,1.016.481.7,1.6-.588,1.551-.053,1.177.428h.749l1.337-.481.428-.749.8.267,2.781.053.374.588.053,1.658,1.016.107,1.016.481.16.588-1.337,1.337-1.123.588-.856.749-.588.856-1.07.856.428,1.07.214,1.872-.214,2.032.214.588-1.444,1.123-.107.535.749.7v1.016l-.909,1.872-.535.267h-2.3l-.588.16.588,1.016.749.642.16,1.016.856,1.712.909.214.267.428-.321,1.284-1.712,1.6-.481,2.139,1.6,2.3.909-.107-.374,1.284-1.123.321-1.872,2.3-.428,1.177.588,3.423Z" transform="translate(-62.515 -248.198)" fill="#00ffc2" stroke="#000" stroke-linecap="round" stroke-linejoin="round" stroke-width="0.1"/>
    <path id="RO" d="M704.979,463.152l.8.856.963.481,2.139.481.321-.642.481.16.856-.267,1.177-.7,1.177-.107,1.177.374,1.016.963-.107,2.3-.374,1.123-3.316.7.214-.321-.374-1.07-.535-.535-.481.588.321.909-.374.749-.107,1.284.321.481-.856,1.07-.267.7.428,2.567-.214,1.979H708.3l-1.391-.267-1.177-.374-1.337-1.391-.909.267-.481-.321-1.712-.214-2.407-1.23-1.551.214-2.353.481-1.712.642L691.5,476.2l-.642.856-.856.481-1.23.321-2.246-.107-5.028-.909-1.337.267-1.872-.214-2.835-.535-2.086-.16-1.979.321-.481-.963.963-1.07-2.3-1.337-.428-.642-.856-.481-.267-.909,1.337-.963-1.6-.856-.909.267-.909.963-.7.107L664.7,470l-.8-.374-1.872-.374-.8-.642-1.123-.321.107-.321.963-.428-1.23-.588.8-1.07-.481-.588-1.391-.428-2.032-1.016-1.177-.963-.214-2.193-.428.107-.963-1.07-1.551-.909-.909-1.07,1.712-.481.749.267,1.337-1.07,1.391.16.7-.481.8-2.514,1.123-.8-.107-.7.856-1.444v-.642l.749-.8.374-1.337.749-.749-.053-.909.642-.535,1.016-1.284,2.46-.588,1.177-1.23,1.123-.481.481-.642h.374l1.444.8,1.444-.053,3.691.749,1.925-.374.642.16,2.3,1.765,1.123-.267.535-.642,1.818-.7,4.493-.642.588-1.016.107-.749,1.979-.428h1.123l1.337.856,1.337,1.6,1.6,2.621.8.7,1.337,1.712,1.123.963.7.909,1.6,1.123.749,1.551.749,1.23.267,1.551-.481,2.567.053,1.391.749,2.674-.481.374,1.07,1.23Z" transform="translate(-235.313 -204.242)" fill="#00ffc2" stroke="#000" stroke-linecap="round" stroke-linejoin="round" stroke-width="0.1"/>
    <path id="RS" d="M643.739,472.635l.909,1.07,1.551.909.963,1.07.428-.107.214,2.193,1.177.963,2.032,1.016,1.391.428.481.588-.8,1.07,1.23.588-.963.428-.107.321,1.123.321.8.642,1.872.374.8.374.535.642.7-.107.909-.963.909-.267,1.6.856-1.337.963.267.909.856.481.428.642-.481.374-.107,1.016-1.123.535-.214,1.23.321,1.284,1.284,2.086,1.551.8.7.856.856.535-.16.749-.856.909-.588.856-.963.053-.588.321v1.765l.749,1.551-.588.909-.535.16-.749-.374-1.23.428-1.016-.16-1.07.481-1.177.16-.321-.7.535-.481.642-1.712.107-.642-2.514-.642v-.7l-1.177-.642-.107-.374-1.23-1.123-1.5-.7-.588-.7-.909.481.321.856-.214.535-.909.7v.749l-.8.267-.053-.535-2.835-1.551-1.123-.267-1.6-.856-1.016-1.07-1.391-.909-.214-.642.374-.428,1.337.16.107-1.177-1.712-1.979.267-.428,1.658.054.161-.428-1.765-1.551-1.284-.642-.267-.428.053-1.391.856-1.444.267-1.337-.8-.428-1.5.374.535-.856-.374-1.391.909-.214,1.23-.053-.481-.8-1.6-.535-.642-.535.214-1.07-.7-.214-.107-.856-.856-1.444.374-.8,1.123-.7.856.267,1.177-.535.8-.856.535-.16,1.551.214.588-.107,1.5.16.535.267Z" transform="translate(-227.453 -219.127)" fill="#00ffc2" stroke="#000" stroke-linecap="round" stroke-linejoin="round" stroke-width="0.1"/>
    <path id="SK" d="M643.217,423.979l-.8,1.6-.428,1.551-.856.909.053,1.337-2.3.588-.321-.107-1.177-1.177-.749-.481-2.46.374-1.337-.321L631.4,428.2l-.963.214-.856,1.872-2.674,1.337-1.872-.749-.374.107-.535.8-1.284.321-2.3.214-.749.374-.214.535.267.7-.321.535-3.744.214-2.514-.053-.856-.374-2.246-1.444-1.123-.16-1.23-1.551-.856-1.551-.054-.428.481-1.284.588-1.5.749-.642,1.925.267.909-.107.8-.374,1.123-1.016.856-.428.374-1.6,1.23-.642.321-.428,1.07-.8,1.5-.16.7.107.267.8h1.177l.535-.909,1.177-.7,1.6,1.6.749.214.321,1.444.749-.214.909.321.588-1.123,1.23-.535,1.6-.054,1.284.535.963.053.749-.8,1.712-.107,1.925.16,1.658.535.535.374.428.749,3.049,1.016.481.107Z" transform="translate(-214.522 -194.754)" fill="#00ffc2" stroke="#000" stroke-linecap="round" stroke-linejoin="round" stroke-width="0.1"/>
    <path id="SI" d="M587.432,464.5l-1.337-.321-.481.428v.909h-1.07l-.374.535-2.353.909-.214.749.481.481.107,1.177-.214.588-1.123.321-1.123.535.535.588-.374.374.428,1.23-.642.214-.856-.107-1.07-.374-.7.267-.8-.374-1.391-1.123-.642,1.177-.321.16-1.926.053-.588-.267-.749.7-1.765-.428-.267-.321.909-.588.8-.054-.107-.7-.8-.7-1.016-.588.214-1.07-.7-.107-.16-.535.856-1.123-1.23-.374-.374-.749,1.765-1.23.107-.481,2.674.481,2.674.374,1.6-.642.535-.7,1.016-.374,1.391-.107,1.5.107,1.23-.588.856-.107,1.284.267.053-1.016.7-.481,1.284.054.749,1.765,1.016,1.177Z" transform="translate(-195.963 -214.196)" fill="#00ffc2" stroke="#000" stroke-linecap="round" stroke-linejoin="round" stroke-width="0.1"/>
    <path id="SE" d="M561.006,236l-.8-.16-.16-2.032,1.07-2.46.535-.16,1.444-3.477.267,1.07-.8,1.712-.16,1.177-.321.267L561.006,236Zm14.013-12.141-.7.749-.749.267.053,1.765.8.642-.7.267-.374.963-.963.321-.8.856-.16.856-1.123.481.642-1.284-.481-.374-.749-1.123.214-.481-.321-1.712,1.444-1.551.7-.588,1.765-.535h.7l.8.481ZM594.7,163.42l-1.444.16-1.177-.321-.535.16-2.032.16-.588.374-1.123-.374-1.07-.642-1.07.588-.856-.535-.535,1.016.053.963-.963-.107.16.588-1.07.8-1.712.107.374.8-.481.374.535.909-.7.8-1.123,1.016-.267.535.909.588.856,1.337.856.588-.214.642-1.123.588-1.177.909-1.07,2.3-1.658.7-1.284.856-1.6.374-1.284,1.177-.963-.428-.8.267-.535.963-1.016.8-1.284-.107.107.428-1.23.16-.535,2.139-1.177.321-.374.428L564,185.51l-1.123.053.856,1.5-.909.963h-.642l-.8.374-1.016-.428-.107.642.428.7.7.535-.053.7-.481,2.3.374.963-1.123.642-.428.588.321.909-.053.588.374,1.016.428,2.246.588,1.07-.053.856.7.481,1.123-.053.749.856,1.658-.428.428.588,1.551,1.177.909.16,1.016.642v.8l1.551.535,1.016,1.07.428.856-.053.535-1.391.8-.7.7-2.032,1.123-.321-.053-1.123.535,1.07.321.749-.374,1.391-.321.749.642-1.177.267-.16.856-.428.535-1.07.374-1.5.8-2.139.749-.588.642-1.391.535-.7.428h-2.032l-1.979-.053.535.481.481-.107,1.925.214.909.7-1.6.481.909,1.712-.374.428.214,1.872-.588.053-.16.749.321,1.337.535,1.123-.053.535-.8,1.284.481,1.551-.8,2.835-1.016,1.658-.7,2.193-.963.749-1.284-.481-1.819.267-1.712-.16-1.6.107-.428.214.374.749-1.23-.107-.909.588-1.07,1.123v.8l1.016,1.6-.909,1.07h-.588l-1.712-.267-2.942.642-2.728-.535.267-.535.107-1.658-.321-.909-.7-.588-1.658-2.032-.642-1.23,1.284.481.535-.267-.963-1.391,1.177-.053.374-.535-.321-.8-1.016-.321-1.016-1.284-.963-.642-1.872-2.514-.7-1.712-.588.16-.642-1.979-.909-.321-.321-1.979-.963-.214-.7-.909-.214-1.712-.642-.321-.428-.749-.428-1.6-.16-1.444-.481-.963.267-.642.588-.107.588.428.535.963,1.016-.107.374-.749.321-2.086-.856-2.353.8-.8.481-1.284,1.391-.374.7-.428,1.016-1.07.053-1.5.321-1.123-.267-.749-1.658-2.621-.16-.856.963-.321h1.284l.7-1.337.214-1.016-1.819-1.444-.642-.214-2.032-1.123.481-3.423v-.856l-1.337-2.353.053-.963-.321-1.5.588-.588-1.444-2.193,1.07-1.5-.267-.8.642-.535,1.872-2.032,1.765-.8,1.765-.214,3.8.481.909-1.177-.053-.642-.588-1.551-2.514-.856,2.353-2.674,1.765-2.674.053-2.514.321-1.444-.749-2.086,2.032-.214,1.284-.267,1.765-.8-.535-1.337.7-.481,1.6-1.551,1.765-1.551.8-.535.107-.749-.535-.7-1.444-1.23.267-.588,1.444-.321.588-.588.8-1.872,1.979-1.016.8-.481,3.37.963,1.123-1.658-.428-1.926v-.428l1.123-.267,2.193.481,1.551.053,4.6.909.535.053,1.337-.856-1.551-.481.856-.481.749-1.016-.053-1.07-1.391-.856,2.728-.107,1.551.428.214.481,1.551.588,2.567,1.23,2.246.963,4.439.909,1.872.963.642.856.749.053,1.016.8.963.481-.588.535.214,1.284.374.749-.16,1.016,1.5.214.321.7-.535.428-.053.588.428.856,1.765,1.391.321.481-.374.749.053.963-.8.7v.7l.7,1.391.963.321,1.016,1.177.856,1.337Z" transform="translate(-177.078 -64.701)" fill="#00ffc2" stroke="#000" stroke-linecap="round" stroke-linejoin="round" stroke-width="0.1"/>
    <path id="TR" d="M732,551.606l-1.551.267-.053-.8,1.177-.321Zm104.031-11.5,2.3.7.588-.535,1.925.053,1.819.428.481-1.016.749-.214.749.16.321.588.642.214,1.872,1.337.588.909,1.016.107.7.642.7.856.909.642.909,1.765-.107,1.23-.535.749.428,1.016,1.016,1.6-.267.321.963.481,1.551.481,1.872-.214.856.374,1.23.909,1.712,1.5.428.481-1.765-1.016-.749.856-.053,2.032-.321.214-1.5-.053-.642.214.642,1.337.749.642v1.23l1.123,1.337.107,1.123.481,1.177.16,1.177.267.374.749.16-.321,2.032-.321.642-.214,1.07.909.321,1.712,1.07.053.7.321.8.16,1.07,1.712,1.23v1.23l-1.123-.267-1.979,1.658-.642-.642-.16-1.284-.8-.8-.7-.107-1.123.749-2.246-.161-1.551-.588-1.551-.428-1.016.321-1.177-.374-.8,1.016-1.07,1.016-.642.16-.856-1.391-.7-.107-.642.7-1.177.428-2.46.535-1.712.161-2.193-.321-1.712.107-1.658.749-2.781,1.5-2.193.749-2.246.481-4.065-.107-.588-.16-1.872-1.23-1.819-.321-1.819.856-1.23.428-1.872.856-2.567-.054-1.016-.909-1.979-.374-.321.856-.16,2.032.963,1.658-1.765.749v1.391l-.963.588-.428.856-1.177-.642-.535-.053.374-.7-1.337-2.621.374-.8,1.872-2.086-.214-1.284-1.07-.856-1.551,1.123-.909.428-.16.642-.588.428-.963.214-1.551-.535-1.712-.749-1.016-.588-.749-.16-.7.267-1.872,1.5-1.658,2.193-.428.428-1.712.909-1.177.321-.535-.053-2.353.428-1.177.054-.856.481-1.872-.535-1.177-.7-.749-.7-1.23-1.551-.856-.7-1.765-.642-3.1-1.6-2.835-.374-2.139-.161-.374.588.053,2.246-.267.642-.053,1.177-.588.588-1.123-.535-1.016.481-1.979.7-.642.053-2.46-.856L757.2,582.9l-.321-1.07-.7-1.444-.963.16-1.23-.214-1.712-.856-1.284-.053-.642,1.016-.535.374-.7-.214.428-.7-1.979.107-.963.535-.8-.053-.535-.535,1.07-.321,2.086-.214.481-.214.481-.7.909-.642-.642-.267-3.209.16-2.246-.107-.535.374-.214-.856,1.926-.749-.161-.7-2.246-1.177-.161-.856-1.07-1.658,1.016-.267.053-1.337-.214-.8-2.086-.7-.428.053-.588-.7-.909-.481-.642.374-1.765-.749-.321-.321.267-.749.535-.588-.481-1.016-.053-.535.963-.053.535.588.16,1.177,1.926.374,1.551-.321-1.337-.588-.588-.642-.642-1.23.963-.588.642-.909-1.444-.642.107-1.284-1.337-1.444.16-.428,1.23-1.5-.642-.374-2.3.374-.856.321-1.658.107-.16-.856.321-.7-.267-1.819.107-.963.909-.321.909-1.444,1.6-1.658h1.872l.7-.481h1.123l.428.642,1.016.481,1.712-.053.749-.481-.856-.8.909-.267.8.214-.054.963,2.193-.267,2.353.214.749-.107h1.819l.267-.267-1.925-.909,1.07-.8,3.637-.642,1.979-.428-3.049-.428-.749-.321-1.07-.749-.535-.588.16-1.391.321-.374,1.177-.053,4.118.642,2.835-.428,3.263.963,3-.214.588-.374.588-1.391,3.958-2.246,1.284-1.123,1.5-.642,2.674-.749,2.139-.909.642-.107,5.563.428,3.744.053,1.6-.856,1.07.267-.053,1.123,1.391,1.391,1.872.749,2.353-.642.963.267,1.177,2.139.8.749.963.481.7.107.8-.749.909-.053,1.551.7.642.749,2.567.588,2.3.321,1.07.642,3.316.642,1.177-.107,1.926-.7,3.744-.7,2.781,1.016,1.337.053.909.267.909-.16,2.674-1.23.749-.642.909-.214,2.781-1.765.481-.749Zm-91.943-3.8-.053.963.535,1.07,1.23,1.444,1.07.749,4.332,1.765.749.16-.481,1.872-1.123.267-3.423-.8-.856-.053-1.551.749-1.23-.214-1.658.321-.321,1.123-1.07,1.284-1.765,1.016-1.337.535-1.872,1.979-.8,1.177-.8.374.267-1.07-.16-.909,1.23-1.07,1.765-.856.374-.7-2.888.16h-1.765l-.535-.963.428-.214,1.337-1.712-.267-2.353,1.819-1.337-.481-1.658-1.23-.8-.642-.16.161-.749,1.016-.16.535-1.177,1.819-.214.8-.588,1.872-.16,1.819,1.337.8-.321h.963l.481-.214.909.107Z" transform="translate(-271.966 -248.57)" fill="#00ffc2" stroke="#000" stroke-linecap="round" stroke-linejoin="round" stroke-width="0.1"/>
    <path id="UA" d="M738.185,428.063v.321l-2.086-.428-.481-.481,2.567.588Zm-14.12,7.809-1.016-.963-1.177-.374-1.177.107-1.177.7-.856.267-.481-.16-.321.642-2.139-.481-.963-.481-.8-.856.588-.374,1.07-.107.214-.535-.267-.749,1.337-1.551v-.7l1.23-.909.214-1.07-.535-.909-.267-1.123,1.337-.856,1.123.535,1.016.107,1.123.428.856-.321.642.7,1.551-.214.321-.374-1.551-.909-.107-1.551-.535-.856-1.123-.428-1.07-.7-.481-1.016v-1.284l-1.551-1.07-1.23-.642-.321-.642.321-1.658-.321-1.23-.749-.749-.749.374-.749-.535-.749-1.016-3-.321-.321-.642-1.337-.16-1.926-1.284-1.872-.535-.856.535-.428-.16-.642.535-2.139-.053-.374-.107-1.23.749-.107.321-1.979.428-.107.749-.588,1.016-4.493.642-1.818.7-.535.642-1.123.267-2.3-1.765-.642-.16-1.925.374-3.691-.749-1.444.053-1.444-.8h-.374l-.481.642-1.123.481-.374-.909-.481-.374-1.23-.214-.481-.588-1.177-.428-.749-1.23h-.8l-.053-1.337.856-.909.428-1.551.8-1.6,1.765.374.214-.481-1.016-.749.053-.963-.8-2.032.321-.535,1.819-2.353,1.284-1.444,2.567-2.46,1.6-.267.642-.963-.053-.7-.963-1.391.642-.7-.749-.535-1.016-1.5-1.444-1.5v-.7l-.642-.963-.053-.749.588-.267,1.016.16.588.267,1.016-.642.856-.856.428-.749,3.156-.267,1.23-.267,1.284-.053,4.172.214,3.477.8,3.263.481h1.23l.963,1.123.535.16,1.6-.053.588.214.428.749.642-.909,1.016.267,1.016-.374,2.728.535.428.7.535.16.321-.588,2.032-.856,1.337,1.6.321.267,1.23-.428,3.8-.321,1.07.588.267.642,1.444.481.428-.749-.963-1.925.535-1.765.428-.642,1.177-1.23.588-.267.909.214.749-.428,2.674.053,1.391.428.909-.053.963-.481.267-1.284.856-.321,1.979.481.535-.053,1.444-.642.856-.107,1.07.16,1.819-.107,1.337.749.749.749.909,1.444,2.139,1.6-.053.535-1.551.267.7,1.016.267,1.07.642.909-.214.535,1.658.053,1.551.535,2.193-.267.8,1.177,1.016.107.107.481.749,1.5.481.588-.107.963.267.535,1.016.856.374.535.588.214,1.23-.749,1.5.214,1.444,1.07h1.23l.909.588.749-.7,2.3-.481,1.23-.535.535.053,1.23.963.267.642.8.856,2.514,1.551.7-.321.481-.8,1.391.749,1.284.107,1.926,1.016.749.053.856-.321,1.07.963,1.016.107,2.353,1.23,1.551-.16.535.428-.053.909.535.481-.053,1.391-.909,1.123-1.23.428.588.8,1.658.481-.481.481-.749-.107-.428.535-.161,1.23,1.337.374.642,1.5v.588l.642.16-.7,2.514-.053.963-2.246.107-3.209-.16-.481.107-.481,1.016-1.23.749-.909.107-.428.428v1.23l-.214.7.588.374-.374.856.267.7-.267.053-2.3-.107-1.818.16L772.2,422.18h-.8l-1.712.8-.749.909-.749-.428-1.658.267-.909.588-1.658-.053-1.23.321-2.46,2.032-.7.054-.535-.535-.856,1.391-1.284.642.321,1.658,1.5,2.407,1.925,2.086.909.749,1.284.374,1.658-.749,1.284.214.909-.642.8-.053,1.979.535-.588,1.337-.16,1.391-1.016.321-1.177-.053-1.177.214-1.444-.8h-1.337l-.588,1.016-1.23.7-.321.749-1.391-.16-1.123.107-1.5.749-1.016,1.5-1.23.963-1.016.267-1.07-.053-.7-.321-1.551-.963.374-1.07.267-1.872-.642-1.551-1.23-.749-.856.107-.481-.16-1.979-1.284-1.016-.107-1.016.267-.8-.642,1.872-1.551,1.872-1.284.909-.107,1.123-.642,1.177-.856-.7-1.23-1.016.321-1.177-.588-.481-.428-1.658.428-.963-.053-2.032.428-1.016-.428-2.139-1.07-1.391-.16v-.535l.963-.16.053-.535-2.032-.321-.053-.7,1.07.267,1.712.107,1.551.267,1.123-.963-1.284.267-1.551-.267-1.123-.963-1.177.642-1.712-.267-1.284.428-1.23-.107-2.193.588-.214,1.551-1.07,2.139-1.658,1.979-2.46,1.123-.909-.214-.481.588.107.7.535.481.588,1.658-.053.7Z" transform="translate(-244.291 -175.357)" fill="#00ffc2" stroke="#000" stroke-linecap="round" stroke-linejoin="round" stroke-width="0.1"/>
    <path id="XK" d="M664.7,525.5l-1.123.214-.8,1.016-.856-.642-.535.054-1.819.8-.107,1.391-.267.428-.909-.16-.053-1.177-.749-1.712-1.016-.7-.749-.267-1.07-1.551-.267-.214.107-.7-.481-.8,1.07-.214.107-.374.856-.214.8-.267v-.749l.909-.7.214-.535-.321-.856.909-.481.588.7,1.5.7,1.23,1.123.107.374,1.177.642v.7l2.514.642-.107.642-.642,1.712-.535.481.321.7Z" transform="translate(-236.43 -240.058)" fill="#00ffc2" stroke="#000" stroke-linecap="round" stroke-linejoin="round" stroke-width="0.1"/>
    <path id="NL" d="M447.363,378.174l-.321.642-1.712.8-2.086-.588-.642.321-.642-.374-.16-.7,1.5-.214,1.872.374.8-.321.642.267.749-.214Zm-1.819-2.835.8.749-.8.16-.856-.535.856-.374Zm9.681-4.546-1.6-.214-.481-.374,1.284-.909,1.712-.8.909.214.267.481-.588.588Zm-4.065-6.151-.588.588-.321-.749.909-.749v.909Zm-3.8,13.532-1.391-.428-1.177.267-1.5-.374-.909-.7.642-.374,1.23-.053,2.139.374.642-.481-.321-.535-1.23-1.123.856-1.444.749-.535,1.712-2.032.481-1.07.642-2.942.535-1.07.749.267,1.07-.428,1.819-1.07.535-.909.535-.481,2.139-.856,1.123-.214,4.76-.267.963.909,1.444.321.053,2.3-.374.909-.588,2.032-1.658-.053-.321.856.374.535,1.391.16.428.535-.321,1.391-1.391.856-.16.481.535.481-.374.535-2.407.7-1.23-.428-.963.374-.374.588,1.658,2.193v.642l-.7,1.5.374.642-1.177.856-.267.428,1.016.642-.321,1.284-.642-.054-1.284-.16-.374-.588.588-.7.535-1.551-1.391-.588-.909-.7-1.016.214-1.391-.749-.267-.856-1.337.428-.588-.7-.8.535-.8-.428-.749.374.107.481-1.123-.16Zm9.681-8.344.481-.481-.267-1.016-1.123-.16-.267-.428.214-1.337-1.5-.214-.214-1.337-.8.16-1.23.8.321.7.856.856v.481l-1.123.374.053,1.391-.107.856,2.888.749Z" transform="translate(-137.727 -167.775)" fill="#00ffc2" stroke="#000" stroke-linecap="round" stroke-linejoin="round" stroke-width="0.1"/>
    <path id="ES" d="M357.792,549.629l-.214.535-1.07-.214v-.8l.642-.856,1.444-.374.428.7-1.23,1.016Zm11.607-7.274.642.267.7-.267.749.214.107.535-1.177,1.872-.321.749-1.123.7-2.139-.909-.16-.856-.749-.374-.909.7-.749-.535-.16-.642,2.835-1.979.8-.481,1.712-.481.267.642Zm7.862-.428-.16.107-2.086-1.016-.856-.214.053-.749,1.391-.107,1.123.374.642.963Zm-41.4-29.685.267.7,2.3.7-.16,1.712.963-.214,2.353.909,1.177.107,1.177,1.123,1.926-.214,1.712,1.123,1.658-.214.374.214h2.514l.428-1.284,2.139.588,1.337.535.909.16.588.8V520.1l.374.214,1.5-.588,1.5.642.7.642,1.123-.588,2.514.642.642-.428,2.032-.588,1.658.321.642,1.177-.963.267-.107.749.642.7.054,1.123-1.6,1.5-4.653,2.514-1.551,1.444-3.53.8-2.407.8-1.177.267-2.193,2.032.588.16.642.642-.214.321-1.337.588h-.481l-1.551,2.46-1.391,1.765-.8.8-.8,1.123-1.712,3-.053.856.856,2.942,1.177,1.444,1.284.588.321.535-.428.535-1.284.909-2.3,1.23-.963,1.016-.16.963-.7.428-.267,1.337-.963,2.353.7.642-.7.428-3.477.16-2.193,1.5-1.07,1.284-1.016,2.407-1.177,1.391-.535.267-.8-.642-1.016-.053-1.016.16-.535.535-.8.267-.8-.267-2.46-.107-1.23.428-1.016-.267-1.712-.16-3.744.321-2.139,1.819h-1.819l-1.658.642-1.123,1.6-.267.856-.535-.16-.16.642-1.123.428-1.284-.535-1.07-.8-.535-.053L305,571.29l-.642-1.658v-.588l-.8-.321-.16-.749.107-.856-.642-1.07-2.674-1.979-1.979-.16-1.6.267-.588-3.423.428-1.177,1.872-2.3,1.123-.321.374-1.284-.909.107-1.6-2.3.481-2.139,1.712-1.6.321-1.284-.267-.428-.909-.214-.856-1.712-.16-1.016-.749-.642-.588-1.016.588-.16h2.3l.535-.267.909-1.872v-1.016l-.749-.7.107-.535,1.444-1.123-.214-.588.214-2.032-.214-1.872-.428-1.07,1.07-.856.588-.856.856-.749,1.123-.588,1.337-1.337-.16-.588-1.016-.481-1.016-.107-.053-1.658-.374-.588-2.781-.053-.8-.267-.428.749-1.337.481h-.749l-1.177-.428-1.551.053-1.6.588-.481-.7.7-1.016-.535-.963-2.193.535-1.016.481-.642.588-.7-.053v-1.337l1.391-1.391-.856-.107.642-1.016-.535-.535.053-1.391-1.23.481-.267-.642.749-1.177-.749-.107-1.23-1.337.428-1.658,1.07-.535,1.016-.8,1.391.16.909-.16,1.926-.856-.214-.8.214-.374,1.712-.909,1.07-.107,1.016-.481.7.267.588-.053.7.321.909.856,1.337.321,1.07-.267,1.926-.054.909.107,1.712-.16.963.053,1.551-.428,1.23.535,2.353.214,1.391.428,3.851.749h1.444l1.979-.428.856-.267.8.16,1.123-.321,1.23.535,2.514.7,1.123-.7,1.819.321,1.765.7.963.054,1.391-.16,1.337-.535Z" transform="translate(-65.166 -236.43)" fill="#00ffc2" stroke="#000" stroke-linecap="round" stroke-linejoin="round" stroke-width="0.1"/>
    <path id="FR" d="M438.777,464.934l-.16,1.23.535.909.321,3.477-.963,1.712.053,1.6-.856,2.3-.428.588-2.032-1.07-.642-.588.535-.963-1.177-.481.214-.909-.107-.481-.856-.267.535-.7v-.428l-.8-.535-.16-.481.7-.588-.321-.481.053-.7.481-1.016.642-.481,1.5-.428.642-.588,1.016.321.321-.642-.107-1.444.16-.588.7.267Zm-71.618-25.62-.214.749-1.016-1.284.535-.267ZM412.3,409.576l1.123.642h.749l1.07-.321.7.374.749.053,1.872,2.3.963-.374.749.214.16.481,1.123.053,1.6-.321,1.07.749,2.567.428.856.321.053.7-1.872,2.032-.749,2.942-.535.963-.16.8.107,1.284-.321,1.07v.8l.588.7-.8.374-.428.749-1.444.16-.428-.428h-.588l-.963.749.7.588-.321.481-2.032,2.139-1.123.481-.267,1.551-1.6,1.177-.588,1.551.428.374-.16.8-.8.535v.535l.749.053,1.23-.856-.267-.7,1.23-.8,1.016-.053,1.177.16.428,1.177-.267.909,1.23,1.23.481.749-1.391.909.053.856.481.321.909,1.391.963.856-.428,1.337-.642.16-.909.7-1.016-.107-.428.214.8,1.658,1.712.749.267.909-.428.374-.749,1.337.374.7.053.749.481.481,2.728,1.284,1.765-.321.16,1.07-1.123,1.391.107.8-.321.16-.428.16-1.284.588-2.086,1.818-.963.535-.374.963-1.07.749-1.284.267-1.23.535-.588-.214h-1.5l-.909-.642-1.819-.428-.588-.963-1.337-.053-.428-.8-1.016.16-.8.374-1.07-.053-3.156-.963-.749-.749-.909.267-.856.856-3.477,2.193-1.391,2.3-.053.642.374,2.086.856,1.337-1.658-.321-2.032.588-.642.428-2.514-.642-1.123.588-.7-.642-1.5-.642v-.8l-1.391-.321-.481.374-.588-.8-.909-.16-1.337-.535-2.139-.588-.428,1.284H376.68l-.374-.214-1.658.214-1.712-1.123-1.925.214-1.177-1.123-1.177-.107-2.353-.909-.963.214.16-1.712-2.3-.7-.267-.7,1.07-.267,1.016-1.016.909-3.8.7-4.439.535-.856.642-.214-.535-.642-.588.8.374-4.065.267-1.5.481-1.6,1.658,1.284.428.535.481,1.819.321.053-.588-2.46-.963-1.23-1.926-1.23-.267-.7.963-.321-.267-.963L367.373,436l-1.6-.321-2.567-1.391-.909-1.391-.856-1.016-.214-.909.481-.963-.428-.588-.749-.428.588-.856-1.6-.107-.963-.267-.16-.588.7-.749-.856-.428-1.391.107-.107-.909-1.177.16-.642-.16-.588-.588-.7.107-1.177-.214-.428-.374-2.567-.7-1.07-.053-1.016.321-.588-.16-.7-1.177-1.658-.588.321-.374,1.658-.321.321-.374-1.177-.481-.107-.642.856.16.053-.642-2.139.054-.214-.7.267-.749,1.23-.642,3.1-.749,1.337.107.909-.107,1.6-.856,1.551-.214,1.444.428,1.337,1.5.642.535,1.658-.909,2.353.053.481.481.642-.909.535.535,2.514-.107-.8-1.337L364.7,412.3l-.7-.909-1.123-2.3.107-.749,1.712.16,1.444-.321.7.214.16,1.5.588.856h1.177l1.23.267,1.6.053,2.3.428.963-.267,1.872-1.07-.963-.374-.107-.374.481-1.177,2.781-1.337,1.979-.374,2.032-.7,1.07-.749.642-.963.267-.7.16-3.637.535-1.177,1.551-.856,3.423-.588.481-.267.481,1.177v.642L393.1,400l1.712-.535.856.963.267,1.07,2.246.588.321,1.07.481-.16,1.925.214.856.588-.214.856.374.374-.374.749.267.321,1.23.16,1.177-.16.7-.321.267-.749,1.016-.321-.428,1.444.321.321.214,1.07.909.053,1.765.8,1.5,1.391,1.819-.214Z" transform="translate(-92.237 -184.148)" fill="#00ffc2" stroke="#000" stroke-linecap="round" stroke-linejoin="round" stroke-width="0.1"/>
    <path id="PT-2" data-name="PT" d="M293.953,575.945l-.642.107-2.407,1.337h-.7l-1.337-.588-2.407-.214-.8-.16-.963.374h-.8l-.588.535-.428-.16.535-1.123.856-2.193v-1.391l.214-1.177-.16-1.123-.374-.749.588-1.872v-.963l-.481-1.23,1.5.16-.909-.749h-.8l-1.23.481-.8.053.053-.749-.267-.963,1.07-.321.856-.909-.16-.856-.642.588-.321.749-1.5.374-.8-.267v-1.016l.321-.909.214-1.23.428-1.177-.107-.749.856-.7.749-1.016,2.3-4.76-.321-.535.909-3.53.642-1.23.321-2.3-.107-1.07-.374-1.07-.374-2.3v-.749l-.481-.963.053-.535.749-.909.642-.588,1.016-.481,2.193-.535.535.963-.7,1.016.481.7,1.6-.588,1.551-.053,1.177.428h.749l1.337-.481.428-.749.8.267,2.781.053.374.588.053,1.658,1.016.107,1.016.481.16.588-1.337,1.337-1.123.588-.856.749-.588.856-1.07.856.428,1.07.214,1.872-.214,2.032.214.588-1.444,1.123-.107.535.749.7v1.016l-.909,1.872-.535.267h-2.3l-.588.16.588,1.016.749.642.16,1.016.856,1.712.909.214.267.428-.321,1.284-1.712,1.6-.481,2.139,1.6,2.3.909-.107-.374,1.284-1.123.321-1.872,2.3-.428,1.177.588,3.423Z" transform="translate(-62.515 -248.198)" fill="#00ffc2" stroke="#000" stroke-linecap="round" stroke-linejoin="round" stroke-width="0.1"/>
    <path id="CY" d="M833.99,644.811h-.107l.053-.053Zm0,0h.107l.053.054h-.16Zm-.214-.16h-.053V644.6h.053v-.053l.053.053v.053Zm1.872-.428.107.053.16.16.107.214.053.16.107.107.107.053h-.267l-.161-.053-.107-.107h-.107l-.374.054-.321.053-.053.053-.054.053h-.321l-.053-.053.107-.053h.053l-.053-.161h-.107l-.107-.053v-.214l-.053-.053-.16-.053v-.107l.054-.053.107-.053.053.053.053.053.107-.053.053-.053.053-.053.054-.053.107.107.107.053h.053l.107.053h.053l.16-.053h.107l.053.053h.214v-.053Zm-2.139.588v.107l-.16.053-.161.16v.107l-.053.16v.535h-.053l-.053.054v.16l-.053.053h-.321l-.107.053-.053.053-.053.107-.053.054-.107.053-.214.053-.214.107-.16.053-.107-.16.053.267-.214.107-.481.107-.107.053-.053.053-.107.054h-.107l-.481-.054-.535.054-.053.053-.107.053-.321.267-.053.161h-.16l-.16.053v.053l-.053-.053-.053-.107.053-.107.053.053h.16l-.053-.214-.214-.053-.107.107-.054.053-.107-.053v.053l-.214-.053-.16-.107-.053-.053v-.107h-.214l-.053.053v.053h-.107l-.053.107h-.214l-.053.054.053.107-.107.053h-.267l-.321-.053-.267-.107-.374-.214-.16-.054-.16-.053h-.267l-.161-.053-.107-.107-.321-.214-.053-.054-.053-.214v-.053l-.053-.053-.214-.481-.053-.053-.16-.107-.107-.053-.053-.053-.053-.107v-.107l.053-.107-.16-.214-.053-.107v-.214l-.053-.107-.161-.267-.107-.16-.053-.214.053-.16h.053l.16.053.214.267.16.054.107.053h.321l.214-.107.16-.214.16-.214.053-.267.053-.16.107-.053.053-.053v-.053h.053l.053.053h.16l.053.053.107.107h.16l.107-.107.053-.107V643.1l.214.053.107.214.053.107.053.107.107.054.214.053.16.053.107.107.107.053.053.107v.107l.053.053.053.053h.054l.214-.053.053-.107.053-.107.053-.053.053.053.054.053.107.053h.107l.107-.053.107-.107.107-.107.107-.053.16-.107.053-.107h.107l.16.053h.374l.053-.053h.053l.053-.107.161-.107h.107l.107.053.053.053h.16l.107.107.107.107.107.054.16.053h.053l.053-.053v-.054l.053-.107.16-.16h.481v.107l.053.107.053.053.107.107.107.107v.054l.053.16v.481l-.053.161.053.107.053.053h.214v-.374l.053-.053.053-.053.053-.053.053.053.053.214.053.107.053.053.161-.053V644.6l.053-.054h.107l.053.054h.107l.053-.054.054.054h.053l.16.107h.16l.16.107Z" transform="translate(-315.225 -298.665)" fill="#00ffc2" stroke="#000" stroke-linecap="round" stroke-linejoin="round" stroke-width="0.1"/>
    <circle id="_0" data-name="0" transform="translate(281.662 209.489)" fill="#00ffc2" stroke="#000" stroke-linecap="round" stroke-linejoin="round" stroke-width="0.1"/>
    <circle id="_1" data-name="1" transform="translate(375.53 220.828)" fill="#00ffc2" stroke="#000" stroke-linecap="round" stroke-linejoin="round" stroke-width="0.1"/>
    <circle id="_2" data-name="2" transform="translate(346.434 143.059)" fill="#00ffc2" stroke="#000" stroke-linecap="round" stroke-linejoin="round" stroke-width="0.1"/>
  </g>
</svg>
