<svg xmlns="http://www.w3.org/2000/svg" width="98.025" height="69.956" viewBox="0 0 98.025 69.956">
  <path id="PL" d="M646.747,346.542l.478-.478,1.834.558,3.589,1.754.877.718.638,2.392,1.675,4.067,2.313,3.907,1.356,2.871.718,3.11-.478,1.276-3.19,1.356-.638.4-1.595,2.153v.957l2.632,1.037,1.435.8.638.8-.16,1.914.319.877-.638,1.2.08,1.037.8,1.276.957,1.435v1.037l2.153,2.233,1.515,2.233,1.116.8-.957,1.037,1.435,2.073.08,1.037-.957,1.435-2.392.4-3.828,3.668-1.914,2.153-2.711,3.509-.478.8,1.2,3.03-.08,1.435,1.515,1.116-.319.718-2.631-.558-.718-.16-4.545-1.515-.638-1.116-.8-.558-2.472-.8-2.871-.239-2.552.159-1.117,1.2-1.435-.08-1.914-.8-2.392.08-1.834.8-.877,1.675-1.356-.478-1.116.319-.479-2.153-1.116-.319-2.392-2.392-1.754,1.037-.8,1.356H618.2l-.4-1.2-1.037-.16-.4-1.276-2.233-1.754-.4-1.435-2.153-.638-.4.16-2.791-1.435-1.435.8-.8-.479L604,396.86l1.116-.4v-1.276l-2.871.558-2.632-1.515-1.754-.479h-1.037l1.356,1.914-2.791,1.994-.8-.319-1.2-1.515-1.595-1.435-1.276-.718,1.276-.957.558-.877-1.435-.957-2.552.558-.638-.718-2.153-.877-3.668-.877-.8-.877-.239-.877-2.632-.638.08,1.515-1.675.319,1.276-2.871.319-1.834-1.276-2.552-1.754-.718v-1.276l-1.515-2.472.638-.877.558-2.073-.638-1.515-1.595-1.834.479-2.073-1.116-1.356-2.632-1.675-1.276-1.116.558-1.276,1.515-1.435.239-2.153L569,356.031l-.558-2.073,2.233.718.558-.4-.08-1.435-3.27-.558-.08-.957,1.595.319,3.03-1.116,5.183-1.435,5.5-1.356,2.632-.4,1.595-1.754,1.515-1.356,3.03-.558,1.037-.638,2.233-.957,5.263-.957,4.386-.319,4.306,1.834-.718.239L606,341.916l1.754,2.791.877.957,1.595.718,1.356.239,3.908-.4,1.754-.877.4.08,5.263.319,18.261.718,5.582.08Z" transform="translate(-567.75 -340.75)" fill="#ff3b85" stroke="#000" stroke-linecap="round" stroke-linejoin="round" stroke-width="0.1"/>
</svg>
